<?xml version="1.0" encoding="utf-8"?>
<!-- Generator: Adobe Illustrator 23.0.3, SVG Export Plug-In . SVG Version: 6.00 Build 0)  -->
<svg version="1.1" xmlns="http://www.w3.org/2000/svg" xmlns:xlink="http://www.w3.org/1999/xlink" x="0px" y="0px" width="8000px"
	 height="4000px" viewBox="0 0 8000 4000" style="enable-background:new 0 0 8000 4000;" xml:space="preserve">
<style type="text/css">
	.st0{fill:#9DDCF9;}
	.st1{fill:#2FC4ED;}
	.st2{fill:#FFFFFF;}
	.st3{fill:none;stroke:#FFFFFF;stroke-width:14;stroke-miterlimit:10;stroke-dasharray:70.5311,60.4552;}
	.st4{fill:none;stroke:#FFFFFF;stroke-width:14;stroke-miterlimit:10;stroke-dasharray:68.5846,58.7868;}
	.st5{fill:#EE293E;}
	.st6{fill:#353535;}
	.st7{fill:#878787;}
	.st8{fill:#FEBE11;}
	.st9{fill:#743E1B;}
	.st10{fill:#010101;}
	.st11{fill:#CFCFCE;}
	.st12{fill:#49B749;}
	.st13{fill:#3D3B37;}
	.st14{fill:#E76625;}
	.st15{fill:#717067;}
	.st16{fill:#E05D26;}
	.st17{fill:#A5CE39;stroke:#E05D26;stroke-width:7;stroke-miterlimit:10;}
	.st18{fill:#E9C52E;}
	.st19{fill:#C84439;}
	.st20{fill:#D9E588;}
	.st21{fill:#F89E5F;}
	.st22{fill:#61BF7C;}
	.st23{fill:#B876B2;}
	.st24{opacity:0.3;fill:#5CC7F2;}
	.st25{opacity:0.3;fill:#FFFFFF;}
	.st26{fill:#2B3647;}
	.st27{fill:#232D3D;}
	.st28{fill:#767F84;}
	.st29{fill:#F9E04B;}
	.st30{fill:#12222E;}
	.st31{fill:#7CC24B;}
</style>
<g id="Layer_2">
	<g id="Layer_3">
	</g>
	<rect y="0" class="st0" width="8000" height="4000"/>
	<g>
		<path class="st1" d="M400.83,1026.02c0,0,98.66-43.64,136.61-70.2c0,0-57.39,5.33-62.93-10.36
			c-5.54-15.69,21.23-18.46,34.16-32.31c12.93-13.85,6.46-26.77,2.77-33.24c-3.69-6.46,13.85-19.39,89.55-30.46
			c75.7-11.08,72.93-29.54,63.7-32.31c-9.23-2.77-80.32,17.54-87.7,0c-7.39-17.54,31.39-37.85,66.47-35.08
			c35.08,2.77,72.01-0.92,64.62-9.23c-7.38-8.31-44.31-32.31,8.31-41.54c52.62-9.23,172.63-57.24,237.26-49.85
			c64.63,7.39,189.25,46.16,242.8,47.08c53.54,0.92,177.25-20.31,188.33-27.69c11.08-7.39,150.48,20.31,163.41,35.08
			c12.92,14.77-20.31,16.62,0,19.39c20.31,2.77,62.78-4.62,66.47-4.62c3.69,0,20.31,4.62,26.77,31.39c0,0,10.16-26.77,49.85-40.62
			c0,0,104.31-4.62,147.7,18.46c0,0,28.62,0.92,52.62-14.77c24-15.7,40.62-23.08,26.77-31.39c-13.85-8.31-31.39-8.31,12.93-24
			c44.31-15.69,62.78-27.7,54.47-0.92c-8.31,26.77-9.97,33.23,1.94,35.08c11.91,1.85,37.76,2.77,8.22,31.39
			c0,0,12,20.31,74.78-33.23c0,0,72.01-12,50.78,19.39c-21.23,31.39-18.47,48-121.86,49.85c0,0-23.08,8.31-34.16,13.85
			c-11.08,5.54-26.77-5.54-30.47-3.69c-3.69,1.85,15.7,18.46,16.62,23.08c0.92,4.62,0,3.69-32.31,9.23
			c-32.31,5.54-67.39-4.62-67.39,7.38c0,12,22.15,23.08,0,29.54c-22.16,6.46-91.4,33.23-111.71,60.93
			c-20.31,27.7-9.23,26.77,1.85,31.39c11.08,4.61-5.54,14.77,5.54,24c11.08,9.23,93.24,50.77,128.32,48.01
			c35.08-2.77-32.31,58.16-23.08,75.7c9.23,17.54,21.23,26.77,39.7,12c18.46-14.77,36.93-49.85,36.93-67.39
			c0-17.54,77.55-22.15,85.85-41.54c8.31-19.38-18.46-52.62,3.69-69.24c22.16-16.62,48-45.23,58.16-61.85
			c10.16-16.62,114.48-24,120.94,52.62c0,0-2.77,47.08,39.7,18.46c0,0,87.7-89.55,62.77,55.39c0,0-10.15,36,19.39,45.24
			c29.54,9.23,102.47,31.39,7.39,71.08c-95.09,39.7-151.4,24-156.02,24c-4.62,0-66.47,24.92-66.47,24.92s63.7-7.38,56.31,6.46
			c-7.38,13.85-52.62,50.77-26.77,64.62c25.85,13.85,52.62,18.46,71.08,12.93c0,0-1.84,39.69-108.93,55.39
			c0,0-31.39,2.77-8.31-24.93c23.08-27.69-30.47,3.69-57.24,14.77c0,0-45.23,19.38-59.08,52.62c-13.85,33.23-100.63,12-146.79,99.7
			c0,0-4.62,18.46-21.23,0c0,0,5.54,27.7-12,59.08c-17.54,31.39-133.86,82.16-150.48,116.32c-16.62,34.16,6.46,104.32,8.31,112.63
			c1.84,8.31-23.08,78.47-49.85,10.16c0,0-4.62-70.16-16.62-88.62c-12-18.47-55.39-40.62-92.32-22.16
			c-36.93,18.46-35.08,31.39-35.08,31.39s-58.16-40.62-119.09,1.85c-60.93,42.47-57.23,53.54-79.39,101.55
			c0,0-54.87,136.32,47.8,163.53c102.67,27.21,56.9-40.82,89.06-70.51c32.16-29.69,85.35-13.61,87.82-2.47
			c2.47,11.13-85.35,124.93-56.9,132.35c28.45,7.42,89.06-17.32,101.43,0c12.37,17.32-22.26,112.56,0,126.17
			c22.26,13.6,9.9,53.19,51.95,47c42.05-6.18,43.29-24.67,80.4,0.65c37.11,25.32,12.37-26.63,43.29-43.95
			c30.92-17.31,38.35-18.55,51.95-19.17c13.61-0.61,4.95-8.04,18.55-19.17c13.6-11.13,47-17.32,44.53-3.71
			c-2.47,13.61-27.21,11.13-24.74,33.4c0,0,11.13-22.27,38.34-23.51c27.21-1.24,40.82-1.24,51.95,19.79
			c11.13,21.03,39.58,24.74,80.4,25.98s105.14,43.29,132.35,75.46c27.21,32.16,90.3,42.05,123.69,39.58
			c33.4-2.48,40.82,58.13,49.48,89.05c8.66,30.93,13.61,28.45-14.84,53.19c-28.45,24.73-24.74,29.68,0,33.4
			c24.74,3.71,8.66,28.45,51.95,0c43.29-28.45,105.14-7.42,97.72,18.56c-7.42,25.97-4.95,27.21,14.84,11.13
			c19.79-16.08,102.67-1.16,108.85,10.55c6.18,11.71,37.11,52.53,82.88,52.53c45.77,0,4.95,106.38-13.61,127.4
			c0,0-59.36,51.96-58.13,90.3c1.24,38.34,11.13,196.67-60.61,216.46c-71.74,19.79-145.96,59.37-127.41,94.01
			c18.55,34.63-39.58,206.56-84.11,215.22c-44.53,8.66-70.5-3.71-84.11-14.84c0,0-37.11,0,44.53,50.71
			c81.64,50.72-29.68,56.9-84.11,58.14c-54.42,1.23-28.45,19.8-16.08,29.69c12.37,9.89,3.71,28.45-40.82,23.5
			c-44.53-4.94,3.71,34.64,24.74,38.35c0,0,9.9,23.5-32.16,85.34c0,0,27.21,13.61,35.87,40.82c8.66,27.21-34.64,51.95-18.56,75.45
			c16.08,23.5,33.4,25.98,4.95,34.64c-28.45,8.65-30.93,14.84-30.93,22.26c0,7.42-28.45-18.55-45.76-13.61
			c-17.31,4.95-25.98-48.24-48.24-74.21c-22.27-25.97-39.58-63.08-63.09-66.79c-23.5-3.71-12.37-12.37,9.9-23.5
			c22.27-11.13,34.63-25.98,23.5-33.4c-11.13-7.42-6.18-19.79-19.79-23.5c-13.61-3.71,13.61-19.79-3.71-32.16
			c-17.31-12.37-53.19-14.85-49.48-49.48c3.71-34.63-33.4-221.41-16.08-270.89c0,0,38.34-231.3-71.74-303.05
			c-110.09-71.74-71.74-56.89-97.72-95.24c-25.97-38.34-96.48-169.46-118.74-183.07c-22.27-13.61-16.08-30.92,2.47-55.66
			c18.56-24.74,22.26-23.5,4.95-30.92c-17.31-7.42-13.61-14.84-4.95-37.11c0,0,84.11-123.69,76.69-160.8
			c-7.42-37.1-4.95-112.55-53.19-59.38c-48.24,53.19-51.95-14.84-95.24-33.39c-43.29-18.56-40.82-47-40.82-57.52
			c0-10.51-59.37-51.33-100.19-61.23c-40.82-9.89-2.47-30.92-122.46-43.29c-119.98-12.37-171.93-84.11-190.49-105.14
			c-18.55-21.03,23.5-50.72,11.13-65.56c0,0-63.08-49.48-70.5-81.64c-7.42-32.16-17.32-143.48-42.06-142.24
			c-24.74,1.24-33.4,17.31-13.61,63.08c19.79,45.77,24.74,97.72,24.74,101.43c0,3.71,47.01,42.05,29.69,47
			c-17.32,4.95-45.77-23.5-60.61-51.95c-14.84-28.45-66.79-132.35-48.24-168.22c18.55-35.87-30.92-49.48-48.24-63.08
			c-17.32-13.6-49.48-91.54-13.61-148.43c35.87-56.9,131.11-158.33,123.69-178.12c-7.42-19.79,24.74-4.95,37.11,0
			c12.37,4.95,33.4-45.77-22.26-90.3c0,0-24.74-33.4-7.43-84.11c17.32-50.71-3.71-72.98-34.63-90.29
			c-30.92-17.32-106.38-49.48-163.28-37.11c-56.9,12.37-143.48,24.74-307.99,111.32L400.83,1026.02z"/>
		<path class="st1" d="M554.16,996.48c0,0,63.2,1.04,70.45-16.58C631.86,962.29,568.66,973.69,554.16,996.48z"/>
		<path class="st1" d="M917.8,996.49c0,0-0.88-28.7,11.4-25.18C941.48,974.83,937.48,993.4,917.8,996.49z"/>
		<path class="st1" d="M926.98,1051.39c0,0-33.01-27.97,15.68-38.33C942.67,1013.06,950.67,1033.78,926.98,1051.39z"/>
		<path class="st1" d="M975.82,1197.47c0,0-80.27-1.68-58.03-54.91C940.02,1089.33,996.26,1188.09,975.82,1197.47z"/>
		<path class="st1" d="M1522.83,1855.33c0,0,37.3-29.01,91.17,0c53.87,29.01,11.4,48.69,44.55,46.62
			c33.15-2.08,79.78-12.14,99.46,0.15c0,0-31.08-61.27-139.86-75.78C1509.36,1811.82,1532.15,1839.79,1522.83,1855.33z"/>
		<path class="st1" d="M1642.54,1931.38c0,0.89-18.65,30.49,64.82,26.65c83.47-3.85-74.89-55.95-64.82-25.76
			C1652.6,1962.46,1642.54,1930.5,1642.54,1931.38z"/>
		<path class="st1" d="M1745.25,1945.59c0,0,103.31,24.57,130.24-7.4c26.94-31.97-71.34-70.15-105.97-10.95
			C1769.52,1927.24,1689.3,1920.44,1745.25,1945.59z"/>
		<path class="st1" d="M1894.3,1946.72c0,0,16.47,22.54,34.68,0c18.21-22.54,13.87-3.47,13.01-13.01
			C1941.12,1924.18,1889.11,1906.84,1894.3,1946.72z"/>
		<path class="st1" d="M1943.06,1950.19c19.73-0.86,22.34,5.2,7.6,15.61c-14.74,10.4-16.47,4.33-15.6-3.47
			C1935.92,1954.52,1943.06,1950.19,1943.06,1950.19z"/>
		<path class="st1" d="M1739.12,1855.69c0.44-2.56,0.49-13.87,18.88-13.87c18.4,0,21.86,17.33,8.86,20.37
			C1753.86,1865.23,1738.28,1860.53,1739.12,1855.69z"/>
		<path class="st1" d="M1731.75,1822.28c0,0,28.18,6.54,31.65-3.87C1766.87,1808.01,1735.65,1811.41,1731.75,1822.28z"/>
		<path class="st1" d="M1725.42,1786.34c0,0,25.46,20.81,32.58,11.27C1765.13,1788.07,1742.93,1782,1725.42,1786.34z"/>
		<path class="st1" d="M1686.25,1800.11c0,0-50.29-62.32-3.48-76.19c46.81-13.87,52.88,16.47,37.28,26.87
			C1704.45,1761.2,1675.86,1789.6,1686.25,1800.11z"/>
		<path class="st1" d="M1981.87,1929.38c0,0-20.81,28.51,13.87,28.99C1995.73,1958.37,2013.07,1925.92,1981.87,1929.38z"/>
		<path class="st1" d="M1988.11,1960.71c0,0,31.9,17.22,18.03,29.35C1992.27,2002.2,1957.94,1976.45,1988.11,1960.71z"/>
		<path class="st1" d="M2009.63,1954.61c0,0,1.71,38.71,47.65,16.71C2057.29,1971.32,2084.31,1942.31,2009.63,1954.61z"/>
		<path class="st1" d="M2014.81,1986.6c0,0,16.47,32.94,37.28,38.15c0,0-59.82,65.02-37.28,76.29c22.54,11.27,14.33,6.07,21.03-6.94
			c6.71-13,39.65-52.88,34.45-65.02C2065.09,2016.94,2072.03,1968.39,2014.81,1986.6z"/>
		<path class="st1" d="M2091.96,2083.69c0,0-27.74-22.54,6.93-20.81C2133.57,2064.62,2103.23,2086.29,2091.96,2083.69z"/>
		<path class="st1" d="M2006.14,2144.38c0,0,23.87,22.54,29.71,16.47c5.84-6.07-1.09-33.81,17.98-39.01
			c19.07-5.2,2.45-28.16-30.34,0C1990.68,2150,2006.14,2144.38,2006.14,2144.38z"/>
		<path class="st1" d="M2306.09,2424.4c0,0-42.39,26.45-45.08,0c-2.69-26.46,5.2-28.61,31.21-34.68
			C2318.23,2383.65,2333.93,2413.01,2306.09,2424.4z"/>
		<path class="st1" d="M2107,3704.83c0,0-47.47,18.08-10.17,44.07c37.29,25.99,61.02,21.48,99.45,14.69
			c38.42-6.78,31.64,10.17,38.42,0c6.78-10.17-67.8-20.35-90.4-41.82C2121.69,3700.31,2137.51,3689.01,2107,3704.83z"/>
		<path class="st1" d="M1472.44,663.02c0,0,2.48,42.17,63.26,17.37c60.78-24.81,38.45-18.23,59.54-4.78
			c21.09,13.46,53.33,15.94,43.41,23.38c-9.92,7.44-163.72-2.48-43.41,33.49c120.31,35.97,53.33-18.61,121.55-12.4
			c68.22,6.2,105.42,4.92,100.46-16.14c-4.96-21.07-28.53-14.86-8.68-54.56c19.85-39.69-22.33-13.64-65.74,17.37
			c-43.41,31.01,7.44-23.57,3.72-32.25c-3.72-8.68-44.65,24.81-62.02,11.16C1667.17,632.01,1601.43,552.63,1472.44,663.02z"/>
		<path class="st1" d="M1891.67,725.04c0,0-66.98,40.93-54.57,0C1849.49,684.11,1891.75,704.95,1891.67,725.04z"/>
		<path class="st1" d="M1851.98,651.86c0,0,69.46,70.7,110.39-21.09C1962.36,630.77,1911.51,596.04,1851.98,651.86z"/>
		<path class="st1" d="M1977.25,663.02c0,0-47.13-18.87,40.93-42.92c88.06-24.05,38.45,27.24,21.09,28.88
			C2021.9,650.62,1978.49,639.45,1977.25,663.02z"/>
		<path class="st1" d="M2075.23,613.69c0,0-8.68-66.02,74.42-28.81c0,0,95.51,0.07,109.15,8.72c13.65,8.65-1.24,25.74-27.28,26.5
			C2205.47,620.85,2128.57,623.89,2075.23,613.69z"/>
		<path class="st1" d="M1962.36,846.59c0,0-2.48-40.93,43.41-42.17c45.89-1.24,60.77,44.65,38.45,50.85
			C2021.9,861.47,1999.57,832.94,1962.36,846.59z"/>
		<path class="st1" d="M2100.04,701.52c0,0-85.58,8.53-60.78-23.67c24.8-32.2,74.42-58.24,91.78-50.8
			c17.37,7.44-2.48,28.96,13.64,21.92c16.12-7.04,49.61-30.17,80.62,0c31.01,30.17,37.21,15.28,54.58,6.6
			c17.36-8.68,11.16,22.33,29.77,28.53c18.6,6.2,58.29,12.04,49.61,38.27c-8.68,26.23,21.09,44.83,40.93,47.31
			c19.84,2.48,2.48,40.93-21.09,43.41c-23.57,2.48-69.46-28.58-66.98-8.71c2.48,19.87,23.57,58.87-3.72,51.77
			c-27.29-7.1-42.17-24.46-26.04,10.27c16.12,34.73-9.92,28.53-49.61,0c-39.69-28.53-9.92-40.06-58.3-36.16
			c-48.37,3.91-95.5,1.43-53.33-20.9c42.17-22.32,47.13,19.8,71.94-4.99c24.81-24.78,23.57-33.46,60.78-23.54
			c37.21,9.92,11.16-14.89-1.24-29.77c-12.4-14.88-31.01-63.15-78.14-49.56C2127.33,715.11,2100.04,701.52,2100.04,701.52z"/>
		<path class="st1" d="M2247.64,1207.52c0,0,85.58,57.06,140.16,0c54.57-57.05-39.69-19.84-44.65-33.49
			c-4.96-13.64-21.08-18.6,7.44-33.49c28.53-14.88-14.75-29.99-52.09,22.33C2261.15,1215.18,2257.56,1207.52,2247.64,1207.52z"/>
		<path class="st1" d="M2169.47,557.59c0,0,24.83,23.15,78.17,15.91c53.34-7.23,24.81,31.22,48.37,16.33
			c23.56-14.88,50.85-52.09,124.03-63.26c73.18-11.16,184.81-34.73,199.69-65.74c14.89-31.01-290.23,11.16-334.89,24.81
			c0,0-1.98,16.12,110.02,14.88c0,0-85.21,22.33-118.7,6.2c-33.49-16.12,14.89,19.85,6.2,26.05c-8.68,6.2-27.29-11.16-39.69,0
			c-12.4,11.16-8.68,17.36,4.96,21.08C2261.28,557.59,2186.8,566.27,2169.47,557.59z"/>
		<path class="st1" d="M2138.49,521.5c0,0,32.25,36.09,65.74,12.52c33.49-23.57,64.92-34.73,17.58-39.69
			C2174.46,489.37,2132.29,501.54,2138.49,521.5z"/>
		<path class="st1" d="M2462.21,573.51c0,0-41.19-6.22-13.64-31.5c27.55-25.27,100.46,1.94,124.03-12.95
			c23.56-14.88,68.22-58.3,107.91-54.57c39.69,3.72,112.87,19.84,152.56,13.64c39.69-6.2,274.11-18.61,301.4-28.53
			c27.29-9.92,74.42,21.09,100.47,27.29c26.05,6.2,24.81,3.72,54.57-1.24c29.77-4.96,28.53,18.6,0,23.57
			c-28.52,4.96-50.85-3.72-69.46,18.6c-18.6,22.33-21.08,21.09-12.4,34.73c8.69,13.64-12.4,15.59-28.52,30.74
			c-16.12,15.15-6.2,13.64-12.4,26.8c-6.2,13.16-91.79,14.4-58.3,42.92c33.49,28.53,31.01,47.13-11.16,44.65l1.24,14.7
			c0,0-40.93,21.68-96.74,20.85c-55.82-0.83-55.82-20.5-91.79,14.76c-35.97,35.26-117.83,32.78-148.84,51.39
			c-31.01,18.61-42.17,96.74-70.7,109.15c-28.53,12.4-68.22,9.92-96.75-35.97c-28.53-45.89-65.74-105.43-6.2-131.47
			c59.54-26.05,71.94-55.82,62.02-65.74c-9.92-9.92-40.93-7.44-42.17-22.33c-1.24-14.88,1.24-85.58-43.41-83.1
			C2519.27,582.4,2462.21,573.51,2462.21,573.51z"/>
		<path class="st1" d="M3074.93,830.28c0.37,2.84,54.57,4.46,50.86,25.89c-3.72,21.43,52.09-11.19,79.38-25.89
			c27.29-14.7,35.97,6.39,35.97-15.94c0-22.33,8.68-34.73-64.49-26.05C3103.46,796.97,3069.97,791.64,3074.93,830.28z"/>
		<path class="st1" d="M3274.59,1127.08c0,0-27.55-4.59,0-55.1c0,0-37.89-2.51,13.53-26.43c51.43-23.92,72.96-21.53,57.41,29.9
			c-15.55,51.43,10.76,26.31-7.18,39.47C3320.41,1128.08,3274.59,1127.08,3274.59,1127.08z"/>
		<path class="st1" d="M3350.48,1144.82c0,0,68-53.82,39.29-84.91c-28.7-31.09-38.27-64.58-10.76-80.13
			c27.51-15.55,21.53-23.92,46.65,44.25c25.11,68.17,26.31,58.6,53.82,62.19c27.51,3.59,27.51,7.17-5.98,35.88
			C3440,1150.8,3307.26,1197.08,3350.48,1144.82z"/>
		<path class="st1" d="M6651.36,776.95c-31.89,5.22-31.31-20.3-48.71-21.46c-17.4-1.16-45.81-1.74-78.29-15.66
			c-32.47-13.92-130.48-21.46-171.07-31.9c-40.59-10.44-51.03-2.9-48.71,4.06c2.32,6.96,14.5,15.08-13.34,6.96
			c-27.83-8.12-82.34-10.44-105.54-7.54c-23.2,2.9-65.53-19.72-85.25-24.02c-19.71-4.3-147.29-0.34-190.79-14.26
			c-43.49-13.92-163.53-20.88-163.53-20.88c-27.83,6.38-25.52,27.83-40.59,33.8c-15.07,5.96-33.63-10.02-62.05-9.44
			c-28.42,0.58-22.04,17.98-46.39,4.06c-24.35-13.92-71.33-44.07-107.86-38.85c-36.53,5.22-63.79,11.6-80.61,9.28
			c-16.81-2.32-70.17-13.34-105.54-16.82c-35.38-3.48-79.44,1.74-107.28,8.12c-27.84,6.38,31.89-23.78,41.75-37.69
			c9.86-13.92-8.7-22.04-38.27-28.72c-29.58-6.69-67.27,10.17-100.9-3.75c-33.63-13.92-44.07-16.82-60.89-17.98
			c-16.82-1.16-36.54,24.94-52.77,31.9c-16.24,6.96-49.29-1.74-70.75,0c-21.45,1.74-53.93,11.6-53.93,11.6h-2.9
			c-18.56,6.96-12.17,9.86-5.22,22.04c6.96,12.18-27.26,11.6-45.81,13.92c-18.56,2.32-31.32,12.76-45.23,24.94
			c-13.92,12.18-38.85,15.66-60.31,15.08c-21.46-0.58-20.3,16.24-11.6,26.1c8.7,9.86,46.39,39.43,51.61,53.93
			c5.22,14.5-25.51,31.32-40.01,30.74c-14.5-0.58,7.54-22.04,13.92-36.53c6.38-14.5-14.5-12.18-30.16-40.01
			c-15.66-27.83-44.07-47.55-71.33-45.23c-27.26,2.32-35.95,10.44-35.95,29.14c0,18.7,40.01,33.49,52.77,41.61
			c12.76,8.12-13.92,7.54-34.8,2.32c-20.88-5.22-41.17-11.6-57.41-17.4c-16.24-5.8-31.31,1.74-41.18,10.44
			c-9.85,8.7-71.33,12.76-84.09,13.34c-12.75,0.58-35.37-9.86-64.37-6.38c-29,3.48-40.59,17.98-50.45,22.62
			c-9.86,4.64-17.98,46.39-33.63,6.38c-15.66-40.01-42.91-17.4-42.91-17.4c-11.02,5.8,6.96,16.82,9.28,30.15
			c2.32,13.34-15.08,3.48-35.37,7.98c-20.3,4.5-14.5,8.26-19.14,22.76c-4.63,14.5-21.45,10.44-28.99,2.9
			c-7.54-7.54-28.99-6.96-30.16,5.22c-1.16,12.18,18.56,24.94-15.66,15.08c-34.21-9.86-22.62-17.98-34.8-34.21
			c-12.18-16.24-12.76-8.12-14.09-22.62c-1.33-14.5,78.47,14.5,105.14,13.34c26.68-1.16,26.68-11.6,19.72-27.26
			c-6.96-15.66-37.7-18.55-82.93-33.63c-45.23-15.08-36.53,5.22-51.04,0c-14.49-5.22-26.09-22.04-73.06-31.89
			c-46.97-9.86-129.9,4.64-168.75,11.02c-38.85,6.38-60.89,38.85-78.29,61.47c-17.4,22.62-48.71,51.61-63.21,67.27
			c-14.5,15.66-43.49,15.08-91.63,42.91c-48.13,27.83,0.58,71.33,23.78,86.98c23.19,15.66,42.33-0.58,64.37-12.18
			c22.04-11.6,26.67,15.66,30.15,30.73c3.48,15.08,2.9,16.82,29,38.85c26.1,22.04,53.35-8.12,52.77-20.3
			c-0.58-12.18,12.18-35.96,40.59-53.35c28.42-17.4,8.7-25.52-9.28-33.05c-17.98-7.54-35.95,0-4.64-47.55
			c31.32-47.55,78.87-70.75,95.11-59.15c16.23,11.6-7.54,27.83-36.03,60.31c-28.49,32.48,23.71,46.01,23.71,46.01
			c18.95,13.18,87.32,1.65,113.68,8.24c26.36,6.59-3.29,9.06-37.89,11.53c-34.6,2.47-63.44,0-56.02,21.42
			c7.41,21.42,18.95,37.07,4.94,32.95c-14-4.12-31.3-12.36-48.43,4.94c-17.12,17.3,7.23,34.6-4.3,46.13
			c-11.53,11.53-21.42-4.12-51.07,0.82c-29.65,4.94-30.48,33.77-59.31,27.56c-28.83-6.22-30.48-15.2-51.9-10.26
			c-21.42,4.94-39.54-10.71-9.88-13.18c29.65-2.47,26.36-27.18,16.47-28.83c-9.88-1.65-31.3-0.82-39.54-30.48
			c-8.24-29.66-27.18,6.59-34.73,26.36c-7.54,19.77,41.32,47.78-8.11,56.39c-49.42,8.61-76.96,46.75-76.96,46.75
			c-32.04,21.92-25.29,30.35-113.85,53.03c-88.56,22.68-58.13,48.14-58.13,48.14c52.27,35.41,55.64,72.5,43.84,94.42
			c-11.8,21.92-92.74-6.74-138.26-1.69c-45.53,5.06-33.72,111.29-21.92,145.01c11.8,33.72-10.11,16.86,59.62,21.92
			c69.73,5.06,107.31,6.74,114.85-28.66c7.55-35.41,71.71-92.74,161.07-124.77c89.37-32.04,75.87-3.37,112.97,30.35
			c37.1,33.72,82.62,85.99,91.05,64.07c8.43-21.92,23.61-10.12,43.84-16.86c20.24-6.74-156.81-84.3-129.83-126.46
			c26.98-42.15,153.43,129.83,182.1,155.12c28.67,25.29,1.68,59.01,40.47,65.76c38.78,6.74,1.68-85.99,1.68-85.99
			c32.03-43.84,55.64-15.17,72.5,15.18c16.86,30.35,18.55,37.09,42.15,75.88c23.61,38.78,69.13-10.12,69.13-10.12
			c38.78,16.86,50.58,11.8,91.05-5.06c40.47-16.86,3.37,92.74-15.18,126.46c-18.54,33.72-77.56,11.8-118.03,13.49
			c-40.46,1.69-75.87,1.69-118.03-28.66c-42.16-30.35-69.13-6.74-69.13-6.74c-1.69,25.29-3.38,37.09-24.64,53.95
			c-21.27,16.86-42.81,6.75-63.04-18.55c-20.23-25.29-55.64-42.15-89.37-52.27c-33.72-10.11-37.09-30.35-40.46-79.24
			c-3.37-48.9-94.42-6.74-94.42-6.74c-83.5-5.71-113.09,10.82-168.75,44.22c-55.67,33.4-38.97-22.27-86.43-27.83
			c-47.46-5.57-113.98,150.3-186.34,257.39c-72.36,107.09-77.94,126.71-50.58,161.42c27.36,34.71-27.36,20.96-49.62,123.24
			c-22.27,102.28,100.2,159.36,161.43,226.11c61.23,66.75,83.5,0.05,125.11,0c41.61-0.05-24.91,33.46,109.29-22.21
			c134.2-55.67,133.01,55.67,133.01,55.67c55.67-44.53,111.33,0,111.33,0s-66.8,94.63-22.41,150.3
			c44.38,55.67,100.35,150.3,109.21,183.7c8.87,33.4-8.87,50.09-86.8,139.17c-77.93,89.07,72.37,150.3,72.37,150.3
			c-11.14,105.77,33.4,150.31,89.07,217.1c55.67,66.8,27.41,116.91,27.41,116.91s52.58-9.1,97.11-15.28
			c44.53-6.19,71.74,3.71,110.09-27.22c38.34-30.92,81.63-101.42,94-126.16c12.37-24.73,7.42-35.87,45.76-69.27
			c38.35-33.4,19.79-85.35,17.32-111.32c-2.47-25.98,30.92-44.53,59.37-71.74c28.45-27.21,77.93-74.22,80.4-152.14
			c2.47-77.92-37.11-170.69-37.11-170.69c4.95-37.11,152.14-173.17,190.49-196.67c38.35-23.5,80.4-181.83,76.69-209.66
			c-3.71-27.83-37.1,6.81-86.58,20.41c-49.47,13.61-63.08,16.08-84.11-6.18c-21.03-22.26-37.11-72.98-47-90.29
			c-9.89-17.32-49.48-27.21-49.48-27.21s-6.19-21.03-6.19-27.21s-37.1-53.19-45.76-69.27c-8.66-16.08,16.08-18.55-3.71-38.34
			c-19.79-19.79-90.3-169.46-90.3-169.46c6.19,4.95,18.56,21.03,19.79,4.95c1.24-16.08,14.84-21.03,19.8-14.84
			c4.95,6.18,3.71,25.97,17.31,40.81c13.6,14.84,54.42,71.74,68.03,80.4c13.61,8.66,2.47,24.74,13.6,70.51
			c11.13,45.76,27.21,19.79,37.11,35.87c9.9,16.08,16.08,34.64,35.87,49.48c19.79,14.84,6.19,29.69,13.61,60.61
			c7.42,30.93,8.66,35.88,43.29,50.72c34.63,14.84,137.29-48.24,149.67-66.79c12.37-18.55,13.61-18.55,59.38-39.58
			c45.76-21.03,63.08-33.4,71.74-60.61c8.65-27.21,38.34-48.24,50.71-69.27c12.37-21.03-76.69-53.19-76.69-53.19
			c7.42-21.03-9.9-30.92-27.21-39.58c-17.31-8.66-64.32,39.58-84.11,35.87c-19.79-3.71,13.6-24.74-11.13-32.16
			c-24.74-7.42-71.74-79.16-71.74-79.16c-4.95-81.64,60.61,24.74,95.24,44.53c34.64,19.79,55.66,12.37,79.17,7.42
			c23.5-4.94,24.74,7.42,35.87,29.69c11.13,22.27,110.08,18.55,162.04,18.55c51.95,0,45.77,2.48,49.48,23.5
			c3.71,21.03,45.77,35.87,63.08,64.32c17.32,28.45,30.93,14.84,39.59,8.66c8.65-6.18,4.94-19.79,21.03-19.79
			s17.32,28.45,9.89,74.74c-7.42,46.29,96.48,207.28,111.33,254.28c14.84,47,66.79-32.16,66.79-32.16
			c23.5-29.68,12.37-119.98,24.74-145.96c12.37-25.98,82.87-39.58,115.03-103.91c32.16-64.32,98.96-39.58,111.32-13.6
			c12.37,25.98,17.32,7.42,40.82,16.08c23.5,8.66,25.98,49.47,30.93,74.22c4.95,24.74,8.66,33.39,27.21,33.39
			c18.55,0,22.27-21.03,38.35-32.16c16.07-11.13,24.74,74.21,30.92,107.61c6.19,33.4-2.47,70.5,0,101.43
			c2.48,30.93,30.92,27.21,53.19,50.71c22.27,23.5-1.23,23.5,19.79,69.27c21.03,45.76,44.53,51.95,72.19,53.19
			c27.66,1.24-9.11-72.98-14.06-91.25c-4.94-18.27-55.66-39.86-66.79-63.37c-11.14-23.5-14.85-30.92-28.45-55.66
			c-13.61-24.74,2.48-29.68,6.19-53.19c3.71-23.5-6.19-33.4-6.19-33.4c32.16,4.95,77.92,74.22,84.11,76.69
			c6.19,2.48,24.73,2.47,25.18,33.4c0.45,30.92,21.82,17.32,36.66,0c14.84-17.32,23.5-8.65,64.32-54.42
			c40.82-45.77-35.87-138.54-35.87-138.54c-119.98-92.77-8.66-118.75,9.9-118.75c18.55,0,16.08,27.21,28.45,24.74
			c12.37-2.47,13.61-14.85,30.92-33.4c17.32-18.56,111.32-25.97,132.35-47c21.03-21.03,4.95-32.16,34.63-86.59
			c29.69-54.42,18.56-65.56,7.42-68.03c-11.13-2.47-33.4,4.95-14.84-12.37c18.55-17.32-12.37-32.16-28.46-44.53
			c-16.08-12.37-40.82-47-54.42-63.08c-13.61-16.08,44.53-50.71,51.95-63.08c7.42-12.37-44.53-12.37-61.85,0
			c-17.31,12.37-48.24-3.71-56.9-24.74c-8.66-21.03,48.24-54.43,64.32-48.24c16.08,6.19-8.66,28.45,25.98,25.98
			c34.63-2.47,45.76-6.19,56.9,8.66c11.13,14.84-6.18,24.74,4.95,27.21c11.13,2.48,37.11,14.85,55.66,35.87
			c18.55,21.03,14.85,54.42,14.85,54.42s37.11-19.79,53.18-27.22c16.08-7.42-7.42-50.71-18.55-66.79
			c-11.14-16.08-56.9-29.69-59.38-43.29c-2.47-13.6,17.32-7.42,27.21-24.74c9.9-17.31-8.65-19.79,0-38.34
			c8.66-18.55-1.23-12.37,37.11-16.08c38.34-3.71,44.61-31.36,44.61-31.36c6.38-19.14,7.54-103.8,2.9-123.52
			c-4.64-19.72-43.49-116.56-99.74-119.46c-56.25-2.9-89.3-25.52-89.3-25.52c-67.27-132.8,175.13-84.67,187.89-80.61
			c12.76,4.06,43.49,45.81,46.39-15.08c2.9-60.89,40.6-45.81,49.29-40.6c8.7,5.22,31.31,41.18,39.43,8.12
			c8.12-33.06,18.56-26.09,29.58-9.28c11.02,16.82,1.16,39.43-13.34,79.45c-14.5,40.01,11.02,45.23,34.8,70.17
			c23.78,24.93,77.71,97.42,107.86,88.73c30.15-8.7-10.44-127.58-10.44-127.58c-8.7-30.73-35.96-24.36-53.36-55.09
			c-17.39-30.74,36.54-34.79,55.09-34.79c18.55,0-3.48,48.71,49.87,4.64c53.36-44.07,52.77-35.37,77.71-40.59
			c24.94-5.22,10.44-19.71-0.58-27.83c-11.02-8.12-71.33-9.86-76.55-25.52c-5.22-15.66,4.06-9.86,10.44-7.54
			c6.38,2.32,13.34,8.7,10.43-6.96c-2.9-15.66,38.86-1.16,69.59,7.54c30.74,8.7,59.73,30.15,62.63-2.32
			C6746.47,785.64,6683.26,771.73,6651.36,776.95z M4296.9,1373.09c-43.31,7.98-76.37-18.24-109.43-13.68
			c-33.06,4.56-124.26,14.44-128.81,15.2c-4.56,0.76-13.68-1.52-13.68-1.52s-43.32-6.84-15.96-49.02
			c27.36-42.18,57-99.18,79.8-67.26c22.8,31.92,18.24,42.18,49.02,30.78c30.78-11.4,49.02-15.96,28.5-20.52
			c-20.52-4.56-22.47-9.12,8.71-25.08c31.19-15.96,42.58-11.4,30.04,14.82c-12.54,26.22-23.05,34.08,5.01,46.11
			C4258.14,1314.96,4340.22,1365.12,4296.9,1373.09z M4589.87,1374.77c-10.26,9.72-52.44,8.58-36.48,31.38
			c15.96,22.8,45.6,62.7,25.08,74.1c-20.52,11.4-23.94,26.22-92.34-18.24c0,0,1.14-9.12,0-36.48
			c-1.14-27.36-21.66-38.76-36.48-72.96c-14.82-34.2-12.54-25.81-25.08-48.81c-12.54-23.01,18.24-27.56,37.62-48.09
			c19.38-20.52,117.42-7.98,86.64,5.7c-30.78,13.68-91.6,23.94-60.62,57c30.98,33.06,43.99,33.64,66.55,35.06
			C4577.33,1354.86,4600.13,1365.05,4589.87,1374.77z"/>
		<path class="st1" d="M3469.19,1437.36c0,0,6.41-28.36,43.91-37.51c37.51-9.15,63.12-1.83,27.45,9.15
			C3504.87,1419.98,3469.19,1437.36,3469.19,1437.36z"/>
		<path class="st1" d="M3641.19,1363.25c0,0,32.02-28.36,0-29.27C3609.16,1333.07,3618.31,1376.98,3641.19,1363.25z"/>
		<path class="st1" d="M3632.04,1437.36c0,0-55.81-68.61,11.89-57.64C3643.93,1379.72,3664.97,1389.79,3632.04,1437.36z"/>
		<path class="st1" d="M3706.14,1459.31c0,0,28.36,48.49,53.06,30.19c24.7-18.3,55.78-50.4,41.17-61.29
			c-14.61-10.89-20.12,8.23-31.1,9.15C3758.29,1438.27,3691.5,1419.06,3706.14,1459.31z"/>
		<path class="st1" d="M3731.76,1505.06c0,0,45.74-1.83,27.44,17.38C3740.9,1541.65,3732.12,1522.24,3731.76,1505.06z"/>
		<path class="st1" d="M3932.11,1517.71c0,0,54.89,40.41,78.68,17.54c23.78-22.87-10.06-22.87-39.34-21.96
			C3942.17,1514.21,3925.7,1503.83,3932.11,1517.71z"/>
		<path class="st1" d="M4135.2,1542.26c0,0-21.96-20.13,9.14-24.55c31.11-4.42,20.13-3.76,33.86-7.29c13.72-3.53,21.95,12.4,0,19.99
			C4156.24,1537.99,4135.2,1542.26,4135.2,1542.26z"/>
		<path class="st1" d="M2848.01,1970.79c0,0,14.78,14.77,46.79,28.32c32.02,13.54-13.54,16.01,0,25.86
			c13.54,9.85,52.95,33.25,52.95,6.16c0-27.09,9.85-86.19-49.87-73.88C2838.16,1969.56,2848.01,1970.79,2848.01,1970.79z"/>
		<path class="st1" d="M3584.3,2396.81c0,0-33.97-73.88,26.11-86.19c60.08-12.31,15.42,19.7,10.05,27.09
			C3615.09,2345.09,3584.3,2396.81,3584.3,2396.81z"/>
		<path class="st1" d="M4448.36,3032.28c0,0-56.77-27.76-40.37-112.29c16.41-84.53-16.4-116.08,49.21-131.21
			c65.61-15.14,52.99-70.65,79.49-80.75c26.5-10.1,47.94,35.33,25.23,85.79c-22.71,50.46-85.5,219.53-73.66,228.36
			C4500.09,3031.02,4448.36,3032.28,4448.36,3032.28z"/>
		<path class="st1" d="M4390.33,2692.9c0,0-5.05,55.51,45.42,39.11c50.46-16.4,3.78-23.02-13.88-25.38
			C4404.21,2704.25,4405.47,2675.23,4390.33,2692.9z"/>
		<path class="st1" d="M4696.91,2547.81c0,0-15.14-31.54,16.4-26.5C4744.85,2526.36,4710.79,2550.33,4696.91,2547.81z"/>
		<path class="st1" d="M4709.79,2889.71c0,0,52.72,2.53,32.54,15.14C4722.14,2917.47,4702.48,2932.61,4709.79,2889.71z"/>
		<path class="st1" d="M5071.59,2307.83c0,0-34.55-31.09,11.52-58.73C5129.18,2221.45,5092.32,2315.89,5071.59,2307.83z"/>
		<path class="st1" d="M5255.88,2244c0,0-36.86-66.33,0-84.75c36.87-18.43,76.03,79.67,57.6,84.75
			C5295.05,2249.1,5255.88,2244,5255.88,2244z"/>
		<path class="st1" d="M5594.53,2271c0,0,140.53,190.04,168.17,236.11c27.64,46.08,43.77,56.84,69.11,27.27
			c25.34-29.57,39.17-18.05,0-66.43c-39.16-48.38-64.5-73.72-64.5-85.24C5767.3,2371.19,5566.88,2175.41,5594.53,2271z"/>
		<path class="st1" d="M5890.34,1950.72c0,0-47.55-14.94-14.94-31.24c32.6-16.3,48.9-3.77,55.7-11.4
			C5931.1,1908.08,5936.53,1949.36,5890.34,1950.72z"/>
		<path class="st1" d="M6138.94,1846.12c0,0-51.62-9.51-21.74-51.62c29.88-42.11,28.53-28.53,32.6-13.59
			C6153.89,1795.85,6138.94,1846.12,6138.94,1846.12z"/>
		<path class="st1" d="M6095.48,2189.81c0,0,32.65-65.21,55.04-67.92c22.38-2.72,2.06,26.65,0,35.06
			C6148.46,2165.36,6132.15,2199.32,6095.48,2189.81z"/>
		<path class="st1" d="M5834.65,2572.9c-1.15,4.76,2.72,25.81,48.91,25.81c46.19,0,66.57,6.79,97.81,12.23
			c31.24,5.43,76.07,19.02,74.71,0c-1.36-19.02-42.11-28.9-63.84-38.22c-21.74-9.33-63.85,9.32-76.07,0
			C5903.93,2563.39,5845.52,2528.07,5834.65,2572.9z"/>
		<path class="st1" d="M5945.3,2476.45c0,0-53.2-127.69-14-120.9c39.19,6.79,20.17-5.44,36.48-16.3
			c16.3-10.87,29.89-14.95,39.4-23.1c9.51-8.15,0-36.5,28.53-39.99c28.53-3.48,42.12-16,50.27-32.16c8.15-16.16,32.86-20.52,42.24,0
			c9.38,20.52,10.74,40.19-9.64,64.31c-20.38,24.13-1.81,31.92,10.64,45.01c12.45,13.09,16.32,28.03,5.56,32.1
			c-10.76,4.08-17.56,14.95-32.5,50.26c-14.94,35.32-21.68,77.43-46.16,65.2C6031.63,2488.67,5974.44,2476.45,5945.3,2476.45z"/>
		<path class="st1" d="M6150.52,2536.22c0,0,11.58-21.74,0-38.04c-11.58-16.3-1.24-14.94,5.14-42.11
			c6.38-27.17-7.21-54.34,21.32-78.79c28.52-24.45,47.54-10.43,72-10.65c24.45-0.22,38.04-16.08,39.39,0
			c1.36,16.08-8.15,39.17-28.53,39.17s-52.98-27.17-62.49-1.36c-9.51,25.82-14.94,27.17,1.36,24.46
			c16.31-2.71,28.53-16.3,38.04-8.15c9.51,8.15,17.66,17.48-8.15,27.08c-25.81,9.6-13.58,20.47-2.72,35.41
			c10.87,14.94,20.38,33.96,6.8,36.67c-13.59,2.72-46.2-12.22-54.34-35.32c-8.15-23.09-13.58,24.45-1.36,44.83
			C6189.21,2549.81,6168.88,2568.82,6150.52,2536.22z"/>
		<path class="st1" d="M6356.3,2411.24c0,0-29.89-0.91-13.59-44.6c16.3-43.69,40.76-40.97,36.68-20.6
			C6375.32,2366.41,6365.81,2380,6356.3,2411.24z"/>
		<path class="st1" d="M6346.79,2472.37c0,0,14.95,36.68,43.47,23.09c28.53-13.59,24.46-20.38,20.38-23.09
			C6406.56,2469.65,6373.96,2484.6,6346.79,2472.37z"/>
		<path class="st1" d="M6420.15,2438.41c0,0,51.62-1.63,44.83,18.2c-6.79,19.83-32.6,29.34-8.15,36.14
			c24.45,6.79,43.47,6.79,72,21.73c28.53,14.94,84.23,33.96,61.13,61.14c-23.09,27.17-24.38,17.66,5.47,25.81
			c29.85,8.15,39.36,12.22,52.94,27.17c13.59,14.95,31.24,12.22,47.55-13.59c16.3-25.81,36.68-31.25,58.41-6.79
			c21.73,24.45,6.79,35.31,67.92,57.05c61.13,21.74,95.09,21.74,35.32-23.09c-59.77-44.83-46.19-64.64-58.41-83.26
			c-12.22-18.62-27.19-50.54-144.69-86.88c-117.5-36.34-52.29-34.99-68.59-40.42c0,0-12.23-17.67-35.32,12.22
			c-23.09,29.89-10.87,36.68-50.26,0C6460.9,2407.17,6431.63,2392.38,6420.15,2438.41z"/>
		<path class="st1" d="M6080.53,2620.73c0,0,6.79,24.16,32.6,10.58c25.81-13.59,35.32,1.36,25.81-13.59
			C6129.43,2602.78,6084.61,2597.93,6080.53,2620.73z"/>
		<path class="st1" d="M6160.94,2610.93c0,0,1.1,31.38,28.26,24.52c27.17-6.86,35.32-19.4,42.12-11.77
			c6.79,7.63,26.84-14.97-14.42-18.61C6175.63,2601.43,6160.94,2610.93,6160.94,2610.93z"/>
		<path class="st1" d="M6141.05,2636.43c0,0,26.43,41.06,37.29,27.48C6189.21,2650.32,6154.01,2634.76,6141.05,2636.43z"/>
		<path class="st1" d="M6231.32,2657.12c0,0,35.32-52.79,63.84-52.88c28.53-0.09,47.33,5.92,42.69,16.5
			c-4.65,10.58-45.4-4.99-60.35,15.7c-14.94,20.68,4.08,23.48-17.66,30.23C6238.11,2673.42,6231.32,2690.56,6231.32,2657.12z"/>
		<path class="st1" d="M6820.89,2553.79c1.26,5.69,57.06,48.99,100.53-21.65c43.47-70.64-73.35-87.61-62.49-60.1
			c10.87,27.5,21.69,47.37,29.86,43.54C6896.97,2511.77,6815.46,2529.25,6820.89,2553.79z"/>
		<path class="st1" d="M6941.8,2544.56c0,0,25.81,46.49,43.47,60.51c17.66,14.02,47.54,10.99,61.13,35.6
			c13.59,24.61,17.66,49.61,42.11,36.42c24.46-13.18,4.08-55.94-17.66-64.44c-21.74-8.51-52.99-9.86-76.08-32.96
			c-23.09-23.09-50.27-81.51-52.98-50.26C6939.08,2560.67,6941.8,2544.56,6941.8,2544.56z"/>
		<path class="st1" d="M7099.64,2875.83c-0.92,5.03-26.07,43.47,16.04,59.77c42.11,16.31,19.02,29.88,43.47,31.24
			c24.45,1.36,27.17-16.3,9.51-28.52C7151.01,2926.09,7106.7,2837.28,7099.64,2875.83z"/>
		<path class="st1" d="M7216.21,2848.66c0,0-42.11-69.28-13.58-78.79c28.53-9.51,55.7-5.43,44.83,20.38
			C7236.59,2816.06,7233.87,2844.59,7216.21,2848.66z"/>
		<path class="st1" d="M7433.56,2866.2c0,0-40.75-37.92,35.32-52.86C7544.96,2798.4,7474.32,2851.14,7433.56,2866.2z"/>
		<path class="st1" d="M7566.69,2923.38c0-4.07-10.86-35.32,19.02-20.38c29.88,14.95,8.15,35.33-19.02,16.31
			C7539.53,2900.28,7566.69,2927.45,7566.69,2923.38z"/>
		<path class="st1" d="M7608.81,2848.66c0,0-12.23-25.85,21.73-10.21C7664.5,2854.1,7634.62,2866.33,7608.81,2848.66z"/>
		<path class="st1" d="M7634.62,2806.92c0,0,0.54-31.62,11.13-20.75C7656.35,2797.04,7659.07,2807.3,7634.62,2806.92z"/>
		<path class="st1" d="M7672.66,2753.57c0,0-8.15-35.31,23.1-20.37C7726.99,2748.14,7701.18,2761.72,7672.66,2753.57z"/>
		<path class="st1" d="M7491.98,2651.49c0,0,24.46-34.99,32.6-16.03C7532.74,2654.4,7513.71,2660.8,7491.98,2651.49z"/>
		<path class="st1" d="M7235.23,2411.24c0,0,8.15-24.07,28.53-13.39c20.38,10.68,2.71,25.62-6.79,26.98
			C7247.46,2426.18,7235.23,2411.24,7235.23,2411.24z"/>
		<path class="st1" d="M7384.67,2359.43c0,0,36.67-3.45,29.88,7.2c-6.79,10.64-13.59,32.38-21.74,16.08
			C7384.67,2366.41,7384.67,2359.43,7384.67,2359.43z"/>
		<path class="st1" d="M7341.19,2191.47c4.08,3.77,33.96-0.31,28.53,25.51c-5.43,25.81-32.6,21.73-28.53,0
			C7345.26,2195.24,7341.19,2191.47,7341.19,2191.47z"/>
		<path class="st1" d="M7020.12,2204.75c-0.88-2.71,18.14-4.92,19.5,8.41c1.35,13.33,9,25.96-9.77,21.68
			c-18.77-4.28-45.94-9.2-33.71-21.68C7008.37,2200.68,7020.12,2204.75,7020.12,2204.75z"/>
		<path class="st1" d="M6481.28,2230.2c0,0-4.07-45.21,21.73-38.73C6528.83,2197.96,6497.58,2232.57,6481.28,2230.2z"/>
		<path class="st1" d="M6844.78,3577.58c-5.31-2.36,17.43-65.87,122.04-106.55c104.61-40.67,89.11-79.42,106.54-60.05
			c17.44,19.37,66.12,29.05,26.28,42.61c-39.84,13.56-65.03,54.24-92.14,60.05c-27.12,5.81-62.14,7.75-66.91,25.18
			C6935.82,3556.28,6879.65,3593.08,6844.78,3577.58z"/>
		<path class="st1" d="M7114.92,3424.55c0,0-0.88,17.44,12.68,15.5c13.56-1.94,23.5-34.87,52.43-46.49
			c28.92-11.62,52.4,0,55.19-23.25c2.79-23.25,40.13-48.43,14.68-40.68c-25.45,7.75-57.95,5.81-57.2-25.18
			c0.75-30.99-22.49-48.43-22.49-25.18c0,23.25,11.62,54.24-1.94,63.93c-13.56,9.68-60.23,25.18-53.36,48.43
			C7121.79,3414.86,7114.92,3424.55,7114.92,3424.55z"/>
		<path class="st1" d="M6481.04,3493.58c0,0-31.44-16.42-12.07-53.38c19.37-36.95,44.56-33.08,65.87-21.46
			C6556.14,3430.36,6582.22,3448.31,6481.04,3493.58z"/>
		<path class="st1" d="M5916.88,3246.33c0,0,46.5-11.62,44.56-54.24c-1.94-42.62-42.62-201.46,19.37-236.33
			c61.99-34.87,62.73-53.5,114.66-56.78c51.93-3.27,86.8-38.73,94.55-65.56c7.75-26.82,16.94-19.08,26.88-11.33
			c9.93,7.75-11.38-26.03,37.05-38.2c0,0,27.12-58.48,60.05-41.14c32.94,17.34,33.52,42.99,44.85,22.42
			c11.33-20.57,18.59-61.25,54.67-61.25c36.08,0,29.23-25.18,67.52-11.62c38.3,13.56,67.35,20.16,49.92,37.2
			c-17.44,17.04-27.12,56.66-7.75,65.91c19.37,9.24,75.55,49.97,75.55,49.97l40.68-61.49c0,0-23.25-29.61,0-62.54
			c23.25-32.93,15.5-79.24,56.18,21.4c0,0,61.23,27.68,48.05,64.16c-13.18,36.48-17.97,46.17,1.86,75.23
			c19.83,29.06,41.14,75.55,62.45,100.73c21.3,25.18,30.99,36.81,25.18,75.55c-5.81,38.74-3.87,98.79-56.17,141.41
			c-52.3,42.62-93.92,79.43-122.5,114.29c-28.59,34.87-38.28,13.56-63.46,29.06c-25.18,15.49-38.74,56.17-54.24,36.8
			c-15.5-19.37-23.46-27.12-39.82-15.5c-16.36,11.62-29.92,18.5-47.35-10.12c-17.44-28.62-44.56-92.45-44.56-92.45l29.06-34.97
			c0,0-42.89,9.58-58.25,41.6c0,0-1.12-20.29-37.3-47.41c-36.17-27.12-140.83-29.06-177.61,1.94
			c-36.78,30.99-91.03,11.62-118.14,27.12C6015.68,3265.71,5922.7,3312.19,5916.88,3246.33z"/>
		<path class="st1" d="M6201.57,2213.15c0,0,19.18,21.08,40.63,6.04c21.45-15.04,23.38,27.58,29.2,37.27
			c5.81,9.68,7.75,10.62,31-10.19c23.25-20.81,3.87-22.74,0-63.42c-3.87-40.68-17.44-19.37-31,0
			C6257.83,2202.21,6195.68,2177.61,6201.57,2213.15z"/>
		<path class="st1" d="M6216.9,2182.37c1.19-1.9-15.26-34.79,8.15-39.22c23.4-4.43,20.24,39.22,8.22,39.22
			C6221.25,2182.37,6216.9,2182.37,6216.9,2182.37z"/>
		<path class="st1" d="M6246.55,2121.7c0,0-9.71,20.25,15.81,30.3C6287.89,2162.05,6263.63,2119.88,6246.55,2121.7z"/>
		<path class="st1" d="M6253.51,2093.18c0,0,2.31,29.1,34.99,36.69C6321.19,2137.45,6308.54,2086.22,6253.51,2093.18z"/>
		<path class="st1" d="M6209.87,2142.83c2.38,0.9,4.17-21.97,17.58-31.07c13.41-9.1,26.7-26.21,5.82-19.24
			c-20.87,6.98-17.43,21.01-23.58,19.06C6203.54,2109.62,6156.74,2122.91,6209.87,2142.83z"/>
		<path class="st1" d="M6188.99,2103.93c0,0-38.58-13.28-20.24-31.63c18.34-18.34-1.71-20.24-7.81-27.83
			c-6.11-7.59-31.41-17.08-24.45-41.75c6.96-24.67,1.48-42.38,14.03-56.93c12.54-14.55,31.52-16.44,42.27,19.61
			c10.75,36.05-27.2,47.44-12.65,59.46c14.55,12.02,13.26,25.3,32.25,22.77c18.98-2.53,26.75-8.86,32.35,5.69
			c5.61,14.55,13.43,36.05-0.6,30.36c-14.03-5.69-44.06-23.4-42.96-10.12c1.1,13.28-10.29,26.57-10.29,26.57L6188.99,2103.93z"/>
		<path class="st1" d="M6264.26,1558.69c0,0-10.75,26.57,10.75,42.38c21.51,15.81,0.01,17.71,12.66,23.4
			c12.65,5.69,24.67,8.85,22.14-8.22C6307.27,1599.17,6308.54,1554.9,6264.26,1558.69z"/>
		<path class="st1" d="M6330.05,1585.89c0,0-43.6-18.8-19.9-27.43c23.69-8.63,45.84-4.83,40.77,7.19
			C6345.86,1577.67,6330.05,1585.89,6330.05,1585.89z"/>
		<path class="st1" d="M6264.26,1541.61c-0.17,1.89,18.2,19.9,38.83,12.16c20.64-7.74,28.42-24.18,48.56-12.16
			c20.15,12.02,10.66,30.5,27.1,28.22c16.45-2.28,20.87-25.35,18.97-32.48c-1.9-7.13,15.18,2.99,34.79-4.6
			c19.61-7.59,42.38-13.29,29.73-43.65c-12.65-30.36,3.16-37.32-8.22-60.09c-11.38-22.77-48.07-75.9-76.54-45.54
			c0,0,22.14,55.03,27.2,58.19c5.06,3.16,0.63,20.24-14.55,35.42c0,0-66.37,17.71-79.99,26.56
			C6296.52,1512.51,6266.89,1511.33,6264.26,1541.61z"/>
		<path class="st1" d="M6382.55,1370.83c0,0,0.49,10.12-17.47-17.08c-17.95-27.2-10.99-27.2-2.77-38.58
			c8.22-11.38-2.44-22.77-8.5-37.32c-6.06-14.55,7.86-15.81,24.3,5.69c16.45,21.5,29.1,22.14,46.81,24.03
			c17.71,1.9,59.8,6.96,40.97,19.61c-18.83,12.65-44.13,6.32-39.7,18.34c4.43,12.02-10.75,8.85-22.77,6.32
			C6391.4,1349.32,6384.44,1350.44,6382.55,1370.83z"/>
		<path class="st1" d="M6365.08,1257.61c0,0-20.48,8.23-36.3-10.75c-15.81-18.98-20.24-47.44-33.53-65.15
			c-13.28-17.71-67.68-74.64-75.27-87.92c-7.59-13.28-13.28-22.14,6.96-15.18c20.24,6.96,20.24,27.2,34.16,39.85
			c13.91,12.65,53.77,30.36,65.79,44.91c12.02,14.55,18.98,24.67,8.85,27.2c-10.12,2.53-23.4-1.27-8.85,13.91
			c14.54,15.18,38.19,21.51,38.19,37.32C6365.08,1257.61,6365.08,1257.61,6365.08,1257.61z"/>
	</g>
	<g>
		<path class="st2" d="M529.9,2069.65l-19.49-63.99H412.4l-19.49,63.99h-61.42l94.89-269.95h69.69l95.25,269.95H529.9z
			 M496.8,1957.84c-18.02-57.99-28.17-90.78-30.43-98.38c-2.27-7.6-3.89-13.61-4.87-18.02c-4.05,15.69-15.63,54.49-34.75,116.4
			H496.8z"/>
		<path class="st2" d="M863.66,2069.65h-72.45l-116.95-203.38h-1.65c2.33,35.92,3.49,61.54,3.49,76.87v126.52h-50.94V1800.8h71.9
			l116.77,201.36h1.29c-1.84-34.94-2.76-59.64-2.76-74.11V1800.8h51.3V2069.65z"/>
		<path class="st2" d="M1095.91,2069.65l-19.49-63.99h-98.01l-19.49,63.99H897.5l94.89-269.95h69.69l95.25,269.95H1095.91z
			 M1062.81,1957.84c-18.02-57.99-28.17-90.78-30.43-98.38c-2.27-7.6-3.89-13.61-4.87-18.02c-4.05,15.69-15.63,54.49-34.75,116.4
			H1062.81z"/>
		<path class="st2" d="M1191.17,2069.65V1800.8h57.01v221.77h109.05v47.08H1191.17z"/>
		<path class="st2" d="M1487.59,1911.5l56.09-110.7h61.42l-89.19,164.21v104.63h-56.64v-102.79l-89.19-166.05h61.79L1487.59,1911.5z
			"/>
		<path class="st2" d="M1742.65,2069.65h-57.01v-221.4h-73v-47.44h203.01v47.44h-73V2069.65z"/>
		<path class="st2" d="M1857.03,2069.65V1800.8h57.01v268.84H1857.03z"/>
		<path class="st2" d="M2095.9,1844.38c-21.45,0-38.06,8.06-49.83,24.18c-11.77,16.12-17.65,38.59-17.65,67.4
			c0,59.95,22.49,89.92,67.49,89.92c18.88,0,41.74-4.72,68.59-14.16v47.81c-22.07,9.19-46.71,13.79-73.92,13.79
			c-39.11,0-69.02-11.86-89.74-35.58c-20.72-23.72-31.08-57.77-31.08-102.15c0-27.95,5.09-52.44,15.26-73.46
			c10.17-21.02,24.79-37.15,43.86-48.36c19.06-11.22,41.4-16.83,67.03-16.83c26.11,0,52.34,6.31,78.7,18.94l-18.39,46.34
			c-10.05-4.78-20.17-8.95-30.34-12.5C2115.69,1846.16,2105.7,1844.38,2095.9,1844.38z"/>
		<path class="st2" d="M2380.37,1994.99c0,24.27-8.73,43.4-26.2,57.37c-17.47,13.98-41.77,20.96-72.91,20.96
			c-28.69,0-54.06-5.39-76.13-16.18v-52.96c18.14,8.09,33.5,13.79,46.06,17.1c12.56,3.31,24.06,4.96,34.48,4.96
			c12.5,0,22.1-2.39,28.78-7.17c6.68-4.78,10.02-11.89,10.02-21.33c0-5.27-1.47-9.96-4.41-14.07c-2.94-4.11-7.26-8.06-12.96-11.86
			c-5.7-3.8-17.32-9.87-34.85-18.21c-16.43-7.72-28.75-15.14-36.96-22.25c-8.21-7.11-14.77-15.38-19.68-24.82
			c-4.9-9.44-7.36-20.47-7.36-33.1c0-23.78,8.06-42.48,24.18-56.09c16.12-13.61,38.4-20.41,66.84-20.41c13.98,0,27.31,1.65,40,4.96
			c12.69,3.31,25.96,7.97,39.81,13.98l-18.39,44.32c-14.34-5.88-26.2-9.99-35.58-12.32c-9.38-2.33-18.6-3.49-27.67-3.49
			c-10.79,0-19.06,2.51-24.83,7.54c-5.76,5.03-8.64,11.58-8.64,19.68c0,5.03,1.16,9.41,3.49,13.15c2.33,3.74,6.04,7.36,11.13,10.85
			c5.09,3.49,17.13,9.78,36.13,18.85c25.13,12.02,42.35,24.06,51.67,36.13C2375.71,1962.66,2380.37,1977.46,2380.37,1994.99z"/>
	</g>
</g>
<g id="Layer_1">
	<g>
		<g>
			<circle class="st3" cx="5063.57" cy="2022.21" r="1042.24"/>
		</g>
	</g>
	<g>
		<g>
			
				<ellipse transform="matrix(0.7071 -0.7071 0.7071 0.7071 53.1709 4172.7783)" class="st4" cx="5063.57" cy="2022.21" rx="486.49" ry="486.49"/>
		</g>
	</g>
	<g>
		
			<ellipse transform="matrix(0.7071 -0.7071 0.7071 0.7071 -161.4209 3457.4868)" class="st5" cx="4092.85" cy="1923.6" rx="371.54" ry="371.54"/>
		
			<ellipse transform="matrix(0.7071 -0.7071 0.7071 0.7071 -161.421 3457.4866)" class="st2" cx="4092.84" cy="1923.6" rx="311.18" ry="311.18"/>
		
			<ellipse transform="matrix(0.7071 -0.7071 0.7071 0.7071 -161.4207 3457.4868)" class="st5" cx="4092.85" cy="1923.6" rx="245.38" ry="245.38"/>
		
			<ellipse transform="matrix(0.7071 -0.7071 0.7071 0.7071 -161.4207 3457.4868)" class="st2" cx="4092.85" cy="1923.6" rx="186.37" ry="186.37"/>
		<circle class="st5" cx="4092.85" cy="1923.6" r="113.23"/>
		<path class="st6" d="M4148.4,1923.6c0,30.68-24.87,55.55-55.55,55.55c-30.68,0-55.55-24.87-55.55-55.55
			c0-30.68,24.87-55.55,55.55-55.55C4123.53,1868.04,4148.4,1892.92,4148.4,1923.6z"/>
		<path class="st7" d="M4118.65,1954.49l0.09-0.1c-2.74-10.27-10.73-39.01-25.9-55.41l0,6.5l-10.01-8.19c0,0,29.67,50.3,30.8,54.53
			l-3.39-13C4110.25,1938.82,4116.07,1948.76,4118.65,1954.49z"/>
		<g>
			<polygon class="st8" points="4682.35,1558.88 4496.68,1669.11 4494.53,1633.66 4493.04,1609.01 4675.57,1472.3 4678.38,1508.19 
							"/>
			<polygon class="st8" points="4767.68,1629.99 4551.16,1718.01 4520.17,1698.65 4510.76,1692.77 4694.24,1582.43 4722.88,1600.98 
							"/>
			<path class="st9" d="M4696.41,1565.56c-3.9-6.51-12.33-8.63-18.84-4.73l-586.15,350.89l14.91,23.1l585.35-350.42
				C4698.19,1580.51,4700.31,1572.07,4696.41,1565.56z"/>
		</g>
	</g>
	<g id="Computer">
		<path class="st10" d="M6801.69,1356.46H4992.63c-36.39,0-65.9,29.5-65.9,65.9v1181.9c0,36.39,29.5,65.9,65.9,65.9h1809.06
			c36.4,0,65.9-29.51,65.9-65.9v-1181.9C6867.59,1385.97,6838.09,1356.46,6801.69,1356.46z"/>
		<path class="st11" d="M4725.02,2704.06c0,0-5.18,24.02,153.71,24.02c158.89,0,2112.42,0,2112.42,0s82.05,0.63,95.96-23.53v-30.65
			H4724.88L4725.02,2704.06z"/>
		<rect x="4977.67" y="1402.55" class="st12" width="1835.91" height="1204.39"/>
		<rect x="4725.39" y="2658.26" class="st2" width="2362.19" height="46.28"/>
		<path class="st11" d="M6117.38,2669.83c0,6.38-5.18,11.56-11.57,11.56h-398.65c-6.39,0-11.57-5.18-11.57-11.56l0,0
			c0-6.39,5.18-11.57,11.57-11.57h398.65C6112.2,2658.26,6117.38,2663.44,6117.38,2669.83L6117.38,2669.83z"/>
	</g>
	<g>
		<path class="st2" d="M4834.18,2981.29c-100.19-25.17-201.81,35.64-226.99,135.83c-25.17,100.19,35.64,201.82,135.83,226.99
			c100.19,25.17,201.81-35.64,226.99-135.83C4995.18,3108.09,4934.37,3006.46,4834.18,2981.29z M4757.67,3285.79
			c-67.99-17.08-109.25-86.04-92.17-154.03c17.08-67.99,86.04-109.25,154.03-92.17c67.98,17.08,109.25,86.04,92.17,154.03
			S4825.66,3302.88,4757.67,3285.79z"/>
		<path class="st2" d="M4813.07,3065.32c-53.78-13.51-108.33,19.13-121.84,72.91s19.13,108.33,72.91,121.84
			c53.78,13.51,108.33-19.13,121.84-72.91C4899.49,3133.38,4866.85,3078.83,4813.07,3065.32z M4772,3228.77
			c-36.49-9.17-58.64-46.19-49.47-82.68c9.17-36.5,46.19-58.65,82.68-49.48c36.49,9.17,58.65,46.19,49.48,82.68
			C4845.51,3215.79,4808.49,3237.94,4772,3228.77z"/>
		<polygon class="st2" points="4863.46,2998.67 4800.16,2982.77 4821.73,2925.9 4871.34,2938.36 		"/>
		<polygon class="st2" points="4941.64,3057.59 4896.58,3010.36 4945.16,2973.77 4980.47,3010.77 		"/>
		<polygon class="st2" points="4974.01,3148.59 4956.79,3085.63 5016.92,3076.5 5030.42,3125.84 		"/>
		<polygon class="st2" points="4954.75,3238.09 4970.65,3174.79 5027.52,3196.36 5015.06,3245.96 		"/>
		<polygon class="st2" points="4702.63,2997.53 4764.66,2977.22 4739.14,2922 4690.54,2937.92 		"/>
		<polygon class="st2" points="4631.08,3062.43 4676.02,3015.09 4627.35,2978.62 4592.13,3015.71 		"/>
		<polygon class="st2" points="4712.95,3326.5 4776.25,3342.41 4754.68,3399.28 4705.08,3386.81 		"/>
		<polygon class="st2" points="4634.78,3267.59 4679.83,3314.81 4631.25,3351.41 4595.94,3314.4 		"/>
		<polygon class="st2" points="4602.4,3176.58 4619.63,3239.54 4559.49,3248.67 4545.99,3199.33 		"/>
		<polygon class="st2" points="4873.79,3327.64 4811.76,3347.96 4837.27,3403.17 4885.88,3387.25 		"/>
		<polygon class="st2" points="4945.33,3262.75 4900.39,3310.08 4949.07,3346.55 4984.29,3309.46 		"/>
		<polygon class="st2" points="4605.76,3150.4 4621.66,3087.1 4561.35,3079.23 4548.89,3128.83 		"/>
	</g>
	<g>
		<path class="st2" d="M5170.05,3227.53c-78.15-0.04-141.54,63.29-141.57,141.44c-0.04,78.15,63.29,141.54,141.44,141.57
			c78.15,0.04,141.54-63.29,141.57-141.44C5311.52,3290.95,5248.2,3227.57,5170.05,3227.53z M5169.94,3465.06
			c-53.03-0.02-96.01-43.04-95.98-96.07c0.02-53.03,43.04-96,96.07-95.98c53.03,0.02,96,43.04,95.98,96.07
			C5265.98,3422.12,5222.97,3465.09,5169.94,3465.06z"/>
		<path class="st2" d="M5170.01,3298.28c-39.08-0.02-70.77,31.65-70.79,70.72s31.65,70.77,70.72,70.79
			c39.08,0.02,70.77-31.65,70.79-70.72C5240.76,3329.99,5209.09,3298.3,5170.01,3298.28z M5169.96,3417.05
			c-26.52-0.01-48-21.52-47.99-48.04c0.01-26.52,21.52-48,48.04-47.99c26.52,0.01,48,21.52,47.99,48.04
			C5217.98,3395.58,5196.47,3417.07,5169.96,3417.05z"/>
		<polygon class="st2" points="5194.73,3234.9 5145.35,3234.88 5150.71,3189.18 5189.41,3189.2 		"/>
		<polygon class="st2" points="5262.94,3263.75 5221.19,3237.39 5250.1,3201.59 5282.82,3222.25 		"/>
		<polygon class="st2" points="5303.44,3324.57 5279.22,3281.54 5321.66,3263.78 5340.65,3297.5 		"/>
		<polygon class="st2" points="5305.77,3393.79 5305.8,3344.41 5351.5,3349.77 5351.48,3388.47 		"/>
		<polygon class="st2" points="5076.5,3263.66 5118.28,3237.34 5089.4,3201.52 5056.66,3222.15 		"/>
		<polygon class="st2" points="5035.94,3324.45 5060.21,3281.44 5017.78,3263.64 4998.76,3297.34 		"/>
		<polygon class="st2" points="5144.61,3503.16 5193.99,3503.19 5188.63,3548.89 5149.93,3548.87 		"/>
		<polygon class="st2" points="5076.4,3474.32 5118.16,3500.68 5089.24,3536.47 5056.52,3515.82 		"/>
		<polygon class="st2" points="5035.9,3413.5 5060.13,3456.52 5017.68,3474.29 4998.69,3440.57 		"/>
		<polygon class="st2" points="5262.84,3474.4 5221.06,3500.73 5249.95,3536.54 5282.69,3515.92 		"/>
		<polygon class="st2" points="5303.4,3413.62 5279.13,3456.62 5321.57,3474.43 5340.58,3440.73 		"/>
		<polygon class="st2" points="5033.55,3393.67 5033.57,3344.29 4987.86,3349.61 4987.85,3388.3 		"/>
	</g>
	<g>
		<rect x="5059.29" y="1474" class="st13" width="1659.4" height="987.97"/>
		<rect x="5059.29" y="1547.54" class="st2" width="1659.4" height="987.97"/>
		<path class="st14" d="M5127.72,1510.46c0,8.89-7.21,16.1-16.1,16.1c-8.89,0-16.1-7.21-16.1-16.1c0-8.89,7.21-16.1,16.1-16.1
			C5120.51,1494.36,5127.72,1501.57,5127.72,1510.46z"/>
		<path class="st15" d="M5185.12,1510.46c0,8.89-7.21,16.1-16.1,16.1s-16.1-7.21-16.1-16.1c0-8.89,7.21-16.1,16.1-16.1
			S5185.12,1501.57,5185.12,1510.46z"/>
		<path class="st15" d="M5245.03,1510.46c0,8.89-7.21,16.1-16.1,16.1c-8.89,0-16.1-7.21-16.1-16.1c0-8.89,7.21-16.1,16.1-16.1
			C5237.83,1494.36,5245.03,1501.57,5245.03,1510.46z"/>
	</g>
	<g>
		<polygon class="st16" points="5275.73,1993.78 5272.37,1985.85 5522.08,1879.94 5712.43,1741.56 5842.81,1809.04 6039.59,1797.98 
			6306.66,1724.66 6306.99,1724.63 6495.04,1703.32 6496.01,1711.88 6308.29,1733.15 6040.99,1806.52 5840.94,1817.77 
			5713.19,1751.65 5526.35,1887.49 5525.89,1887.68 		"/>
	</g>
	<g>
		<path class="st17" d="M5295.36,1989.81c0,11.77-9.54,21.3-21.3,21.3c-11.76,0-21.3-9.54-21.3-21.3s9.54-21.3,21.3-21.3
			C5285.82,1968.51,5295.36,1978.05,5295.36,1989.81z"/>
		<path class="st17" d="M5545.51,1883.71c0,11.76-9.54,21.3-21.3,21.3c-11.76,0-21.3-9.54-21.3-21.3c0-11.77,9.54-21.3,21.3-21.3
			C5535.98,1862.41,5545.51,1871.95,5545.51,1883.71z"/>
		<path class="st17" d="M5734.12,1746.6c0,11.77-9.54,21.3-21.3,21.3c-11.76,0-21.3-9.54-21.3-21.3c0-11.76,9.54-21.3,21.3-21.3
			C5724.58,1725.3,5734.12,1734.84,5734.12,1746.6z"/>
		
			<ellipse transform="matrix(0.9997 -0.025 0.025 0.9997 -43.4708 146.478)" class="st17" cx="5841.88" cy="1813.4" rx="21.3" ry="21.3"/>
		<path class="st17" d="M6061.59,1802.25c0,11.77-9.54,21.3-21.3,21.3c-11.76,0-21.3-9.54-21.3-21.3c0-11.77,9.54-21.3,21.3-21.3
			C6052.05,1780.95,6061.59,1790.48,6061.59,1802.25z"/>
		<path class="st17" d="M6328.78,1728.9c0,11.77-9.54,21.3-21.3,21.3c-11.76,0-21.3-9.54-21.3-21.3c0-11.76,9.54-21.3,21.3-21.3
			C6319.24,1707.6,6328.78,1717.14,6328.78,1728.9z"/>
		<path class="st17" d="M6516.83,1707.6c0,11.77-9.54,21.3-21.3,21.3c-11.76,0-21.3-9.54-21.3-21.3c0-11.77,9.54-21.3,21.3-21.3
			C6507.29,1686.3,6516.83,1695.84,6516.83,1707.6z"/>
	</g>
	<g>
		<path class="st18" d="M5180.57,2303.81l146.93-0.15l-0.15-146.93C5246.21,2156.81,5180.49,2222.65,5180.57,2303.81z"/>
		<path class="st18" d="M5333.91,2305.26l146.93-0.15c-0.04-32.88-10.87-63.23-29.14-87.69L5333.91,2305.26z"/>
		<path class="st19" d="M5332.16,2155.12L5332.16,2155.12l0.14,146.93l117.79-87.84C5423.27,2178.3,5380.43,2155.07,5332.16,2155.12
			z"/>
		<path class="st20" d="M5334.26,2308.47l-49.55,139.04c14.98,5.13,31.04,7.91,47.75,7.89c81.15-0.08,146.87-65.93,146.79-147.07
			L5334.26,2308.47z"/>
		<path class="st21" d="M5180.57,2308.62c0.07,64.43,41.6,119.13,99.33,138.89l49.55-139.04L5180.57,2308.62z"/>
	</g>
	<g>
		<path class="st22" d="M5760.63,2207.66c-27.6,26.74-44.75,64.21-44.7,105.68c0.07,62.08,38.61,115.12,93.06,136.59l53.87-136.74
			L5760.63,2207.66z"/>
		<path class="st21" d="M5951.91,2190.09l-80.24,123.1l-53.86,136.74c16.72,6.59,34.95,10.21,54.01,10.19
			c81.15-0.08,146.86-65.94,146.78-147.09C6018.56,2261.54,5992.01,2216.29,5951.91,2190.09z"/>
		<path class="st23" d="M5867.51,2163.05c-39.68,0.04-75.66,15.81-102.07,41.4l102.22,105.53l80.23-123.1
			C5924.79,2171.79,5897.18,2163.02,5867.51,2163.05z"/>
	</g>
	<g>
		<path class="st18" d="M6392.08,2164.17c-39.68,0.04-75.67,15.81-102.08,41.4l102.23,105.53l-53.87,136.75
			c16.73,6.59,34.95,10.21,54.02,10.18c81.14-0.08,146.86-65.93,146.78-147.07C6539.07,2229.81,6473.22,2164.09,6392.08,2164.17z"/>
		<path class="st22" d="M6281.19,2205.58c-27.6,26.74-44.75,64.21-44.71,105.69c0.06,62.08,38.61,115.12,93.06,136.6l53.87-136.74
			L6281.19,2205.58z"/>
	</g>
	<g>
		<g>
			
				<ellipse transform="matrix(0.7071 -0.7071 0.7071 0.7071 290.9361 5170.085)" class="st24" cx="6386.31" cy="2233.85" rx="368.18" ry="368.17"/>
			<path class="st25" d="M6198.02,2021.96c0,0,288.24-263.42,481.03,121.06C6679.05,2143.01,6512.92,1970.98,6198.02,2021.96z"/>
			
				<rect x="6669.36" y="2491.07" transform="matrix(0.7005 -0.7136 0.7136 0.7005 190.5743 5552.6265)" class="st26" width="83.42" height="116.36"/>
			<path class="st27" d="M6007.03,2096.32c-73.22,212.3,39.54,443.75,251.84,516.96c212.3,73.21,443.76-39.55,516.97-251.86
				c73.21-212.3-39.55-443.75-251.86-516.96C6311.68,1771.25,6080.23,1884.01,6007.03,2096.32z M6734.63,2347.22
				c-65.25,189.24-272.3,290.11-461.54,224.85c-189.25-65.26-290.11-272.31-224.86-461.55c65.26-189.24,272.3-290.11,461.55-224.85
				S6799.89,2157.98,6734.63,2347.22z"/>
			<path class="st28" d="M6035.89,2108.31c-67.77,196.5,36.61,410.74,233.11,478.5c196.51,67.76,410.74-36.61,478.51-233.12
				c67.76-196.5-36.61-410.74-233.12-478.5C6317.88,1807.43,6103.65,1911.8,6035.89,2108.31z M6709.36,2340.54
				c-60.41,175.16-252.04,268.53-427.21,208.12c-175.17-60.4-268.53-252.04-208.13-427.21c60.4-175.16,252.05-268.52,427.21-208.12
				C6676.4,1973.73,6769.76,2165.38,6709.36,2340.54z"/>
			
				<rect x="6959.04" y="2473.55" transform="matrix(0.7006 -0.7136 0.7136 0.7006 60.0877 5872.7822)" class="st27" width="138.08" height="782.49"/>
			
				<rect x="7017.74" y="2448.91" transform="matrix(0.7005 -0.7136 0.7136 0.7005 85.121 5883.1563)" class="st28" width="69.04" height="782.49"/>
		</g>
	</g>
	<g>
		<path class="st29" d="M5248.6,544.17l0.01-0.01l-2.66-3.89l-2.66-3.9l-0.01,0.01l-150.01-219.13
			c-132.4,268.91-342.24,399.61-381.62,428.41c-39.38,28.8-18.18,74.41-18.18,74.41l42.64,62.53l0,0l2.66,3.89l2.66,3.89l0,0
			l42.71,62.48c0,0,34.76,36.36,75.92,10.17c41.16-26.19,239.31-174.01,537.98-199.38L5248.6,544.17z"/>
		<path class="st2" d="M5297.39,569.6c-24.28,16.58-57.4,10.33-73.97-13.95c-16.57-24.28-10.33-57.4,13.95-73.97
			c24.28-16.57,57.4-10.33,73.97,13.95C5327.91,519.91,5321.67,553.02,5297.39,569.6z"/>
		<path class="st2" d="M4782.92,920.82c-24.28,16.57-57.4,10.33-73.97-13.95c-16.58-24.28-10.33-57.4,13.95-73.97
			c24.28-16.58,57.4-10.33,73.97,13.95C4813.44,871.12,4807.2,904.24,4782.92,920.82z"/>
		<path class="st30" d="M5409.71,777.95c-15.62,10.66-36.93,6.65-47.59-8.98l-285.05-417.55c-10.66-15.62-6.65-36.93,8.97-47.59l0,0
			c15.62-10.66,36.93-6.64,47.59,8.97l285.06,417.56C5429.35,745.98,5425.33,767.29,5409.71,777.95L5409.71,777.95z"/>
		<path class="st30" d="M4862.21,626.54c-71.57,66.77-131.35,105.08-150.56,119.13c-39.38,28.8-18.18,74.41-18.18,74.41l42.64,62.53
			l0,0l2.66,3.89l2.66,3.89l0,0l42.71,62.48c0,0,34.76,36.36,75.92,10.17c20.08-12.78,77.53-54.5,165.78-96.83L4862.21,626.54z"/>
		<path class="st30" d="M5147.73,1147.31c-138.29-126.43-183.67-269.03-183.67-269.03l-17.5,11.95l-37.38,25.52l-20.44,13.96
			l183.66,269.03l12.68,18.56l75.32-51.42L5147.73,1147.31z"/>
		<g>
			
				<rect x="4743.24" y="783.94" transform="matrix(0.8259 -0.5638 0.5638 0.8259 386.7027 2832.3213)" class="st2" width="72.47" height="12.13"/>
			
				<rect x="4753.93" y="799.61" transform="matrix(0.8258 -0.5639 0.5639 0.8258 380.0025 2841.6638)" class="st2" width="72.48" height="12.13"/>
			
				<rect x="4764.63" y="815.27" transform="matrix(0.8257 -0.5641 0.5641 0.8257 373.3411 2851.1003)" class="st2" width="72.47" height="12.13"/>
			
				<rect x="4775.32" y="830.94" transform="matrix(0.826 -0.5637 0.5637 0.826 365.5117 2857.9795)" class="st2" width="72.47" height="12.13"/>
			
				<rect x="4786.01" y="846.6" transform="matrix(0.8257 -0.564 0.564 0.8257 359.3546 2868.5339)" class="st2" width="72.47" height="12.13"/>
			
				<rect x="4796.71" y="862.27" transform="matrix(0.8259 -0.5638 0.5638 0.8259 351.6797 2875.7288)" class="st2" width="72.47" height="12.13"/>
			
				<rect x="4807.4" y="877.93" transform="matrix(0.826 -0.5637 0.5637 0.826 344.653 2884.3557)" class="st2" width="72.47" height="12.13"/>
		</g>
	</g>
	<g>
		<path class="st2" d="M3555.11,2566.5c7.39,22.12,15.4,44.38,23.8,66.15l13.06-5.04c-8.32-21.57-16.25-43.62-23.58-65.54
			L3555.11,2566.5z"/>
		<path class="st2" d="M3827.13,1089.47c-14.81,18.05-29.4,36.68-43.37,55.37l11.21,8.38c13.85-18.52,28.31-36.98,42.98-54.87
			L3827.13,1089.47z"/>
		<path class="st2" d="M3679.05,1304.44c-11.59,20.29-22.88,41.12-33.53,61.9l12.46,6.39c10.56-20.59,21.74-41.23,33.23-61.34
			L3679.05,1304.44z"/>
		<path class="st2" d="M3601.62,2688.27c9.22,21.37,19.05,42.83,29.23,63.76l12.59-6.12c-10.09-20.75-19.83-42.01-28.96-63.19
			L3601.62,2688.27z"/>
		<path class="st2" d="M3507.5,2310.91l-13.84,2.14c3.57,23.07,7.71,46.35,12.31,69.2l13.72-2.76
			C3515.13,2356.84,3511.03,2333.77,3507.5,2310.91z"/>
		<path class="st2" d="M3724.44,2917.82c12.68,19.55,25.98,39.08,39.53,58.04l11.39-8.14c-13.43-18.79-26.61-38.14-39.17-57.52
			L3724.44,2917.82z"/>
		<path class="st2" d="M3748.6,1193.82c-13.25,19.23-26.24,39.03-38.6,58.83l11.88,7.41c12.25-19.62,25.12-39.24,38.25-58.3
			L3748.6,1193.82z"/>
		<path class="st2" d="M3519.02,2441.08c5.5,22.68,11.59,45.53,18.11,67.92l13.44-3.91c-6.46-22.19-12.5-44.83-17.95-67.3
			L3519.02,2441.08z"/>
		<path class="st2" d="M3582.18,1546.26l-13.15-4.8c-8.02,21.98-15.64,44.43-22.64,66.74l13.36,4.19
			C3566.68,1590.29,3574.23,1568.03,3582.18,1546.26z"/>
		<path class="st2" d="M3631.74,1426.48l-12.7-5.9c-9.85,21.21-19.33,42.92-28.2,64.54l12.95,5.31
			C3612.58,1469.02,3621.98,1447.5,3631.74,1426.48z"/>
		<path class="st2" d="M3493.12,2182.39l-13.97,0.97c1.62,23.29,3.79,46.84,6.46,69.99l13.91-1.6
			C3496.88,2228.8,3494.73,2205.47,3493.12,2182.39z"/>
		<path class="st2" d="M3542.98,1669.7l-13.51-3.67c-6.11,22.51-11.78,45.46-16.86,68.24l13.66,3.05
			C3531.3,1714.75,3536.92,1692,3542.98,1669.7z"/>
		<path class="st2" d="M3514.41,1795.84l-13.77-2.51c-4.18,22.93-7.9,46.29-11.04,69.42l13.87,1.89
			C3506.58,1841.71,3510.26,1818.56,3514.41,1795.84z"/>
		<path class="st2" d="M3489.36,2073.89c0-6.89,0.05-13.9,0.14-20.82l-14-0.18c-0.09,6.98-0.14,14.05-0.14,21
			c0,16.38,0.26,32.96,0.77,49.29l13.99-0.44C3489.62,2106.56,3489.36,2090.13,3489.36,2073.89z"/>
		<path class="st2" d="M3496.57,1923.93l-13.93-1.35c-2.24,23.19-3.99,46.77-5.19,70.09l13.98,0.72
			C3492.62,1970.29,3494.35,1946.92,3496.57,1923.93z"/>
		<path class="st2" d="M3658.18,2805.59c10.98,20.53,22.59,41.09,34.51,61.12l12.03-7.16c-11.81-19.85-23.31-40.23-34.19-60.57
			L3658.18,2805.59z"/>
		<path class="st2" d="M4451.56,631.46c-21.6,8.64-43.29,17.91-64.5,27.54l5.79,12.75c21.01-9.54,42.51-18.72,63.91-27.29
			L4451.56,631.46z"/>
		<path class="st2" d="M4294.66,3443.06c20.6,11.06,41.72,21.79,62.77,31.89l6.06-12.62c-20.86-10.01-41.79-20.64-62.2-31.6
			L4294.66,3443.06z"/>
		<path class="st2" d="M4332.82,684.91c-20.8,10.44-41.66,21.5-61.99,32.89l6.84,12.22c20.15-11.28,40.82-22.25,61.43-32.59
			L4332.82,684.91z"/>
		<path class="st2" d="M4182.24,3376.43c19.58,12.75,39.71,25.21,59.83,37.05l7.1-12.07c-19.94-11.73-39.89-24.08-59.29-36.71
			L4182.24,3376.43z"/>
		<path class="st2" d="M3799.9,3024.15c14.27,18.43,29.16,36.78,44.26,54.56l10.67-9.06c-14.96-17.62-29.72-35.81-43.86-54.07
			L3799.9,3024.15z"/>
		<path class="st2" d="M4574.68,588.13c-22.31,6.81-44.77,14.22-66.75,22.04l4.69,13.19c21.78-7.75,44.04-15.09,66.14-21.84
			L4574.68,588.13z"/>
		<path class="st2" d="M4412.37,3500c21.45,9.28,43.41,18.19,65.28,26.49l4.97-13.09c-21.66-8.22-43.43-17.05-64.68-26.25
			L4412.37,3500z"/>
		<path class="st2" d="M4582.81,3547.47c-14.68-4.44-29.35-9.08-43.81-13.93l-4.45,13.27c15.92,5.34,32.09,10.46,48.26,15.29
			V3547.47z"/>
		<path class="st2" d="M3884.03,3123.86c15.77,17.18,32.15,34.23,48.68,50.7l9.88-9.92c-16.39-16.31-32.62-33.22-48.25-50.24
			L3884.03,3123.86z"/>
		<path class="st2" d="M3914.08,992.09c-16.25,16.74-32.34,34.07-47.83,51.53l10.47,9.29c15.34-17.3,31.29-34.48,47.4-51.07
			L3914.08,992.09z"/>
		<path class="st2" d="M4218.92,748.19c-19.87,12.16-39.73,24.94-59.04,37.99l7.84,11.6c19.14-12.93,38.83-25.6,58.51-37.65
			L4218.92,748.19z"/>
		<path class="st2" d="M4008.82,902.34c-17.59,15.32-35.06,31.25-51.94,47.34l9.66,10.13c16.73-15.95,34.05-31.73,51.47-46.92
			L4008.82,902.34z"/>
		<path class="st2" d="M3976.23,3216.24c17.16,15.82,34.91,31.45,52.76,46.47L4038,3252c-17.69-14.89-35.28-30.38-52.29-46.06
			L3976.23,3216.24z"/>
		<path class="st2" d="M4075.85,3300.63c18.43,14.33,37.43,28.43,56.49,41.92l8.09-11.43c-18.88-13.36-37.72-27.34-55.98-41.54
			L4075.85,3300.63z"/>
		<path class="st2" d="M4110.67,820.85c-18.8,13.79-37.53,28.2-55.69,42.82l8.78,10.9c17.99-14.49,36.56-28.77,55.19-42.44
			L4110.67,820.85z"/>
	</g>
	<g>
		
			<ellipse transform="matrix(0.7071 -0.7071 0.7071 0.7071 -941.9869 3459.2688)" class="st2" cx="3704.71" cy="2866.71" rx="290.99" ry="290.99"/>
		<circle class="st31" cx="3704.71" cy="2866.71" r="281.63"/>
		<g>
			<polygon class="st2" points="3768.45,2840.13 3890.67,2714.37 3890.67,2840.13 			"/>
			<path class="st2" d="M3832.54,2840.13h55.55c-2.42-10.42-5.74-20.63-9.95-30.58c-9.49-22.44-23.08-42.59-40.37-59.89
				c-17.3-17.3-37.45-30.88-59.89-40.38c-23.25-9.83-47.93-14.82-73.36-14.82c-25.43,0-50.11,4.99-73.36,14.82
				c-22.44,9.49-42.6,23.08-59.89,40.38c-17.3,17.3-30.88,37.45-40.37,59.89c-9.83,23.25-14.82,47.93-14.82,73.36h53.47
				c0-74.42,60.55-134.97,134.97-134.97C3763.99,2747.94,3814.61,2786.61,3832.54,2840.13z"/>
		</g>
		<g>
			<polygon class="st2" points="3638.3,2897.67 3516.07,3023.43 3516.07,2897.67 			"/>
			<path class="st2" d="M3574.21,2897.67h-55.55c2.42,10.42,5.74,20.63,9.95,30.58c9.49,22.44,23.08,42.59,40.37,59.89
				c17.3,17.3,37.45,30.88,59.89,40.38c23.25,9.83,47.93,14.82,73.36,14.82s50.11-4.99,73.36-14.82
				c22.44-9.49,42.59-23.08,59.89-40.38c17.3-17.3,30.88-37.45,40.37-59.89c9.83-23.25,14.82-47.93,14.82-73.36h-53.47
				c0,74.42-60.55,134.97-134.97,134.97C3642.75,2989.86,3592.14,2951.19,3574.21,2897.67z"/>
		</g>
	</g>
	<g>
		<g>
			<path class="st2" d="M3824.35,1042.82c0,14.22-11.53,25.74-25.74,25.74c-14.22,0-25.74-11.52-25.74-25.74
				c0-14.22,11.52-25.74,25.74-25.74C3812.83,1017.08,3824.35,1028.6,3824.35,1042.82z"/>
			<path class="st2" d="M3833.34,1160.87c0,3.01-2.44,5.45-5.45,5.45h-58.56c-3.01,0-5.45-2.44-5.45-5.45v-86.86
				c0-3.01,2.44-5.45,5.45-5.45h58.56c3.01,0,5.45,2.44,5.45,5.45V1160.87z"/>
			<path class="st2" d="M3757.29,1134.08c0,4.02-3.26,7.27-7.28,7.27h-1.7c-4.02,0-7.27-3.26-7.27-7.27v-58.25
				c0-4.02,3.26-7.27,7.27-7.27h1.7c4.02,0,7.28,3.26,7.28,7.27V1134.08z"/>
			<path class="st2" d="M3793,1254.17c0,6.31-5.12,11.43-11.43,11.43h-2.67c-6.31,0-11.43-5.12-11.43-11.43v-91.57
				c0-6.31,5.12-11.43,11.43-11.43h2.67c6.31,0,11.43,5.12,11.43,11.43V1254.17z"/>
			<path class="st2" d="M3829.54,1254.17c0,6.31-5.12,11.43-11.44,11.43h-2.67c-6.32,0-11.44-5.12-11.44-11.43v-91.57
				c0-6.31,5.12-11.43,11.44-11.43h2.67c6.31,0,11.44,5.12,11.44,11.43V1254.17z"/>
			<rect x="3750.01" y="1068.56" class="st2" width="22.86" height="15.51"/>
			<path class="st2" d="M3840.28,1134.08c0,4.02,3.26,7.27,7.27,7.27h1.7c4.02,0,7.27-3.26,7.27-7.27v-58.25
				c0-4.02-3.26-7.27-7.27-7.27h-1.7c-4.02,0-7.27,3.26-7.27,7.27V1134.08z"/>
			<rect x="3824.69" y="1068.56" class="st2" width="22.86" height="15.51"/>
		</g>
		<g>
			<path class="st2" d="M3676.54,1042.82c0,14.22-11.52,25.74-25.74,25.74c-14.21,0-25.74-11.52-25.74-25.74
				c0-14.22,11.53-25.74,25.74-25.74C3665.01,1017.08,3676.54,1028.6,3676.54,1042.82z"/>
			<path class="st2" d="M3685.53,1160.87c0,3.01-2.44,5.45-5.45,5.45h-58.56c-3.01,0-5.45-2.44-5.45-5.45v-86.86
				c0-3.01,2.44-5.45,5.45-5.45h58.56c3.01,0,5.45,2.44,5.45,5.45V1160.87z"/>
			<path class="st2" d="M3609.47,1134.08c0,4.02-3.26,7.27-7.28,7.27h-1.7c-4.02,0-7.27-3.26-7.27-7.27v-58.25
				c0-4.02,3.26-7.27,7.27-7.27h1.7c4.02,0,7.28,3.26,7.28,7.27V1134.08z"/>
			<path class="st2" d="M3645.18,1254.17c0,6.31-5.12,11.43-11.43,11.43h-2.67c-6.32,0-11.44-5.12-11.44-11.43v-91.57
				c0-6.31,5.12-11.43,11.44-11.43h2.67c6.31,0,11.43,5.12,11.43,11.43V1254.17z"/>
			<path class="st2" d="M3681.73,1254.17c0,6.31-5.12,11.43-11.43,11.43h-2.67c-6.31,0-11.44-5.12-11.44-11.43v-91.57
				c0-6.31,5.12-11.43,11.44-11.43h2.67c6.31,0,11.43,5.12,11.43,11.43V1254.17z"/>
			<rect x="3602.19" y="1068.56" class="st2" width="22.86" height="15.51"/>
			<path class="st2" d="M3692.46,1134.08c0,4.02,3.26,7.27,7.28,7.27h1.7c4.02,0,7.27-3.26,7.27-7.27v-58.25
				c0-4.02-3.25-7.27-7.27-7.27h-1.7c-4.02,0-7.28,3.26-7.28,7.27V1134.08z"/>
			<rect x="3676.87" y="1068.56" class="st2" width="22.86" height="15.51"/>
		</g>
		<g>
			<path class="st2" d="M4111.76,1042.82c0,14.22-11.52,25.74-25.74,25.74s-25.74-11.52-25.74-25.74
				c0-14.22,11.52-25.74,25.74-25.74S4111.76,1028.6,4111.76,1042.82z"/>
			<path class="st2" d="M4120.75,1160.87c0,3.01-2.44,5.45-5.45,5.45h-58.56c-3.01,0-5.45-2.44-5.45-5.45v-86.86
				c0-3.01,2.44-5.45,5.45-5.45h58.56c3.01,0,5.45,2.44,5.45,5.45V1160.87z"/>
			<path class="st2" d="M4044.69,1134.08c0,4.02-3.26,7.27-7.27,7.27h-1.7c-4.02,0-7.27-3.26-7.27-7.27v-58.25
				c0-4.02,3.26-7.27,7.27-7.27h1.7c4.02,0,7.27,3.26,7.27,7.27V1134.08z"/>
			<path class="st2" d="M4080.4,1254.17c0,6.31-5.12,11.43-11.43,11.43h-2.67c-6.31,0-11.43-5.12-11.43-11.43v-91.57
				c0-6.31,5.12-11.43,11.43-11.43h2.67c6.31,0,11.43,5.12,11.43,11.43V1254.17z"/>
			<path class="st2" d="M4116.95,1254.17c0,6.31-5.12,11.43-11.43,11.43h-2.67c-6.32,0-11.43-5.12-11.43-11.43v-91.57
				c0-6.31,5.12-11.43,11.43-11.43h2.67c6.31,0,11.43,5.12,11.43,11.43V1254.17z"/>
			<rect x="4037.42" y="1068.56" class="st2" width="22.86" height="15.51"/>
			<path class="st2" d="M4127.68,1134.08c0,4.02,3.25,7.27,7.27,7.27h1.7c4.02,0,7.27-3.26,7.27-7.27v-58.25
				c0-4.02-3.26-7.27-7.27-7.27h-1.7c-4.02,0-7.27,3.26-7.27,7.27V1134.08z"/>
			<rect x="4112.09" y="1068.56" class="st2" width="22.86" height="15.51"/>
		</g>
		<g>
			<path class="st2" d="M3963.94,1042.82c0,14.22-11.53,25.74-25.74,25.74c-14.22,0-25.74-11.52-25.74-25.74
				c0-14.22,11.52-25.74,25.74-25.74C3952.41,1017.08,3963.94,1028.6,3963.94,1042.82z"/>
			<path class="st2" d="M3972.93,1160.87c0,3.01-2.44,5.45-5.45,5.45h-58.56c-3.01,0-5.45-2.44-5.45-5.45v-86.86
				c0-3.01,2.44-5.45,5.45-5.45h58.56c3.01,0,5.45,2.44,5.45,5.45V1160.87z"/>
			<path class="st2" d="M3896.87,1134.08c0,4.02-3.26,7.27-7.28,7.27h-1.7c-4.02,0-7.27-3.26-7.27-7.27v-58.25
				c0-4.02,3.26-7.27,7.27-7.27h1.7c4.02,0,7.28,3.26,7.28,7.27V1134.08z"/>
			<path class="st2" d="M3932.59,1254.17c0,6.31-5.12,11.43-11.44,11.43h-2.67c-6.32,0-11.43-5.12-11.43-11.43v-91.57
				c0-6.31,5.12-11.43,11.43-11.43h2.67c6.32,0,11.44,5.12,11.44,11.43V1254.17z"/>
			<path class="st2" d="M3969.13,1254.17c0,6.31-5.12,11.43-11.43,11.43h-2.67c-6.32,0-11.44-5.12-11.44-11.43v-91.57
				c0-6.31,5.12-11.43,11.44-11.43h2.67c6.32,0,11.43,5.12,11.43,11.43V1254.17z"/>
			<rect x="3889.6" y="1068.56" class="st2" width="22.86" height="15.51"/>
			<path class="st2" d="M3979.86,1134.08c0,4.02,3.26,7.27,7.27,7.27h1.7c4.02,0,7.27-3.26,7.27-7.27v-58.25
				c0-4.02-3.26-7.27-7.27-7.27h-1.7c-4.02,0-7.27,3.26-7.27,7.27V1134.08z"/>
			<rect x="3964.28" y="1068.56" class="st2" width="22.86" height="15.51"/>
		</g>
		<g>
			<path class="st2" d="M3528.34,1042.82c0,14.22-11.53,25.74-25.74,25.74c-14.22,0-25.74-11.52-25.74-25.74
				c0-14.22,11.52-25.74,25.74-25.74C3516.81,1017.08,3528.34,1028.6,3528.34,1042.82z"/>
			<path class="st2" d="M3537.33,1160.87c0,3.01-2.44,5.45-5.45,5.45h-58.56c-3.01,0-5.45-2.44-5.45-5.45v-86.86
				c0-3.01,2.44-5.45,5.45-5.45h58.56c3.01,0,5.45,2.44,5.45,5.45V1160.87z"/>
			<path class="st2" d="M3461.27,1134.08c0,4.02-3.26,7.27-7.28,7.27h-1.7c-4.02,0-7.27-3.26-7.27-7.27v-58.25
				c0-4.02,3.26-7.27,7.27-7.27h1.7c4.02,0,7.28,3.26,7.28,7.27V1134.08z"/>
			<path class="st2" d="M3496.99,1254.17c0,6.31-5.12,11.43-11.44,11.43h-2.67c-6.31,0-11.43-5.12-11.43-11.43v-91.57
				c0-6.31,5.12-11.43,11.43-11.43h2.67c6.31,0,11.44,5.12,11.44,11.43V1254.17z"/>
			<path class="st2" d="M3533.53,1254.17c0,6.31-5.12,11.43-11.43,11.43h-2.67c-6.32,0-11.43-5.12-11.43-11.43v-91.57
				c0-6.31,5.12-11.43,11.43-11.43h2.67c6.31,0,11.43,5.12,11.43,11.43V1254.17z"/>
			<rect x="3454" y="1068.56" class="st2" width="22.86" height="15.51"/>
			<path class="st2" d="M3544.26,1134.08c0,4.02,3.25,7.27,7.27,7.27h1.7c4.02,0,7.27-3.26,7.27-7.27v-58.25
				c0-4.02-3.26-7.27-7.27-7.27h-1.7c-4.02,0-7.27,3.26-7.27,7.27V1134.08z"/>
			<rect x="3528.67" y="1068.56" class="st2" width="22.86" height="15.51"/>
		</g>
		<g>
			<path class="st2" d="M3387.28,1042.82c0,14.22-11.52,25.74-25.74,25.74s-25.74-11.52-25.74-25.74
				c0-14.22,11.52-25.74,25.74-25.74S3387.28,1028.6,3387.28,1042.82z"/>
			<path class="st2" d="M3396.27,1160.87c0,3.01-2.44,5.45-5.45,5.45h-58.56c-3.01,0-5.45-2.44-5.45-5.45v-86.86
				c0-3.01,2.44-5.45,5.45-5.45h58.56c3.01,0,5.45,2.44,5.45,5.45V1160.87z"/>
			<path class="st2" d="M3320.21,1134.08c0,4.02-3.26,7.27-7.28,7.27h-1.7c-4.02,0-7.27-3.26-7.27-7.27v-58.25
				c0-4.02,3.26-7.27,7.27-7.27h1.7c4.02,0,7.28,3.26,7.28,7.27V1134.08z"/>
			<path class="st2" d="M3355.93,1254.17c0,6.31-5.12,11.43-11.43,11.43h-2.67c-6.32,0-11.43-5.12-11.43-11.43v-91.57
				c0-6.31,5.12-11.43,11.43-11.43h2.67c6.32,0,11.43,5.12,11.43,11.43V1254.17z"/>
			<path class="st2" d="M3392.47,1254.17c0,6.31-5.12,11.43-11.43,11.43h-2.67c-6.32,0-11.43-5.12-11.43-11.43v-91.57
				c0-6.31,5.12-11.43,11.43-11.43h2.67c6.31,0,11.43,5.12,11.43,11.43V1254.17z"/>
			<rect x="3312.94" y="1068.56" class="st2" width="22.86" height="15.51"/>
			<path class="st2" d="M3403.2,1134.08c0,4.02,3.26,7.27,7.28,7.27h1.7c4.02,0,7.27-3.26,7.27-7.27v-58.25
				c0-4.02-3.26-7.27-7.27-7.27h-1.7c-4.02,0-7.28,3.26-7.28,7.27V1134.08z"/>
			<rect x="3387.61" y="1068.56" class="st2" width="22.86" height="15.51"/>
		</g>
		<g>
			<path class="st2" d="M3239.46,1042.82c0,14.22-11.52,25.74-25.74,25.74s-25.74-11.52-25.74-25.74
				c0-14.22,11.52-25.74,25.74-25.74S3239.46,1028.6,3239.46,1042.82z"/>
			<path class="st2" d="M3248.45,1160.87c0,3.01-2.44,5.45-5.45,5.45h-58.56c-3.01,0-5.45-2.44-5.45-5.45v-86.86
				c0-3.01,2.44-5.45,5.45-5.45H3243c3.01,0,5.45,2.44,5.45,5.45V1160.87z"/>
			<path class="st2" d="M3172.39,1134.08c0,4.02-3.26,7.27-7.28,7.27h-1.7c-4.02,0-7.27-3.26-7.27-7.27v-58.25
				c0-4.02,3.26-7.27,7.27-7.27h1.7c4.02,0,7.28,3.26,7.28,7.27V1134.08z"/>
			<path class="st2" d="M3208.11,1254.17c0,6.31-5.12,11.43-11.44,11.43h-2.67c-6.32,0-11.43-5.12-11.43-11.43v-91.57
				c0-6.31,5.12-11.43,11.43-11.43h2.67c6.32,0,11.44,5.12,11.44,11.43V1254.17z"/>
			<path class="st2" d="M3244.65,1254.17c0,6.31-5.12,11.43-11.43,11.43h-2.67c-6.31,0-11.43-5.12-11.43-11.43v-91.57
				c0-6.31,5.12-11.43,11.43-11.43h2.67c6.32,0,11.43,5.12,11.43,11.43V1254.17z"/>
			<rect x="3165.12" y="1068.56" class="st2" width="22.86" height="15.51"/>
			<path class="st2" d="M3255.38,1134.08c0,4.02,3.26,7.27,7.28,7.27h1.7c4.02,0,7.27-3.26,7.27-7.27v-58.25
				c0-4.02-3.26-7.27-7.27-7.27h-1.7c-4.02,0-7.28,3.26-7.28,7.27V1134.08z"/>
			<rect x="3239.8" y="1068.56" class="st2" width="22.86" height="15.51"/>
		</g>
		<g>
			<path class="st2" d="M3091.26,1042.82c0,14.22-11.52,25.74-25.74,25.74c-14.22,0-25.74-11.52-25.74-25.74
				c0-14.22,11.52-25.74,25.74-25.74C3079.74,1017.08,3091.26,1028.6,3091.26,1042.82z"/>
			<path class="st2" d="M3100.25,1160.87c0,3.01-2.44,5.45-5.45,5.45h-58.56c-3.01,0-5.45-2.44-5.45-5.45v-86.86
				c0-3.01,2.44-5.45,5.45-5.45h58.56c3.01,0,5.45,2.44,5.45,5.45V1160.87z"/>
			<path class="st2" d="M3024.2,1134.08c0,4.02-3.26,7.27-7.28,7.27h-1.7c-4.02,0-7.27-3.26-7.27-7.27v-58.25
				c0-4.02,3.26-7.27,7.27-7.27h1.7c4.02,0,7.28,3.26,7.28,7.27V1134.08z"/>
			<path class="st2" d="M3059.91,1254.17c0,6.31-5.12,11.43-11.43,11.43h-2.67c-6.32,0-11.43-5.12-11.43-11.43v-91.57
				c0-6.31,5.12-11.43,11.43-11.43h2.67c6.32,0,11.43,5.12,11.43,11.43V1254.17z"/>
			<path class="st2" d="M3096.46,1254.17c0,6.31-5.12,11.43-11.43,11.43h-2.67c-6.31,0-11.43-5.12-11.43-11.43v-91.57
				c0-6.31,5.12-11.43,11.43-11.43h2.67c6.32,0,11.43,5.12,11.43,11.43V1254.17z"/>
			<rect x="3016.92" y="1068.56" class="st2" width="22.86" height="15.51"/>
			<path class="st2" d="M3107.19,1134.08c0,4.02,3.26,7.27,7.28,7.27h1.7c4.02,0,7.27-3.26,7.27-7.27v-58.25
				c0-4.02-3.26-7.27-7.27-7.27h-1.7c-4.02,0-7.28,3.26-7.28,7.27V1134.08z"/>
			<rect x="3091.6" y="1068.56" class="st2" width="22.86" height="15.51"/>
		</g>
	</g>
</g>
</svg>
