<?xml version="1.0" encoding="utf-8"?>
<!-- Generator: Adobe Illustrator 23.0.3, SVG Export Plug-In . SVG Version: 6.00 Build 0)  -->
<svg version="1.1" xmlns="http://www.w3.org/2000/svg" xmlns:xlink="http://www.w3.org/1999/xlink" x="0px" y="0px"
	 viewBox="0 0 672 372" style="enable-background:new 0 0 672 372;" xml:space="preserve">
<style type="text/css">
	.st0{fill:#99DFFF;}
	.st1{fill:#C2ECFF;}
	.st2{fill:#414042;}
	.st3{fill:#FFC641;}
	.st4{fill:#FFD167;}
	.st5{fill:#FFD070;}
	.st6{fill:#333333;}
	.st7{fill:#FFFFFF;}
	.st8{fill:#FF8F73;}
	.st9{fill:#6AE2FF;}
	.st10{fill:#F1F2F2;}
	.st11{fill:#FFDD8D;}
	.st12{fill:#FFE3A4;}
	.st13{fill:#58595B;}
</style>
<g id="BG">
	<rect class="st0" width="672" height="372"/>
	<path class="st1" d="M599.79,317c0.12-3.32,0.21-6.65,0.21-10c0-145.8-118.2-264-264-264S72,161.2,72,307c0,3.35,0.08,6.68,0.21,10
		H599.79z"/>
</g>
<g id="Artwork">
	<g>
		<g>
			<g>
				<path class="st2" d="M103,157H93v-10h10V157z M95,155h6v-6h-6V155z"/>
			</g>
			<g>
				<rect x="107" y="147" class="st2" width="17" height="2"/>
			</g>
			<g>
				<rect x="107" y="152" class="st2" width="7" height="2"/>
			</g>
			<g>
				<rect x="107" y="167" class="st2" width="7" height="2"/>
			</g>
			<g>
				<path class="st2" d="M103,171H93v-10h10V171z M95,169h6v-6h-6V169z"/>
			</g>
			<g>
				<rect x="107" y="161" class="st2" width="17" height="2"/>
			</g>
		</g>
		<g>
			<g>
				<path class="st2" d="M524,256h-10v-10h10V256z M516,254h6v-6h-6V254z"/>
			</g>
			<g>
				<rect x="528" y="246" class="st2" width="37" height="2"/>
			</g>
			<g>
				<rect x="528" y="251" class="st2" width="17" height="2"/>
			</g>
			<g>
				<rect x="528" y="266" class="st2" width="17" height="2"/>
			</g>
			<g>
				<path class="st2" d="M524,270h-10v-10h10V270z M516,268h6v-6h-6V268z"/>
			</g>
			<g>
				<rect x="528" y="260" class="st2" width="37" height="2"/>
			</g>
		</g>
		<g>
			<rect x="71" y="316" class="st2" width="530" height="2"/>
		</g>
		<g>
			<g>
				<path class="st2" d="M464,268c-10.48,0-19-8.52-19-19s8.52-19,19-19c10.48,0,19,8.52,19,19S474.48,268,464,268z M464,232
					c-9.37,0-17,7.63-17,17s7.63,17,17,17s17-7.63,17-17S473.37,232,464,232z"/>
			</g>
			<g>
				<circle class="st3" cx="464" cy="249" r="17"/>
			</g>
			<g>
				<path class="st4" d="M481,249c0-9.38-7.63-17-17-17v34C473.37,266,481,258.37,481,249z"/>
			</g>
			<g>
				<path class="st2" d="M464,262c-7.17,0-13-5.83-13-13s5.83-13,13-13s13,5.83,13,13S471.17,262,464,262z M464,238
					c-6.07,0-11,4.93-11,11s4.93,11,11,11s11-4.93,11-11S470.07,238,464,238z"/>
			</g>
			<g>
				<circle class="st5" cx="464" cy="249" r="11"/>
			</g>
			<g>
				<g>
					<path class="st6" d="M465.09,250.5c0-0.32-0.09-0.58-0.27-0.76c-0.18-0.19-0.48-0.36-0.91-0.52c-0.43-0.16-0.79-0.32-1.1-0.48
						c-0.31-0.16-0.57-0.34-0.79-0.54c-0.22-0.21-0.39-0.45-0.52-0.72c-0.12-0.28-0.18-0.61-0.18-0.99c0-0.66,0.21-1.2,0.63-1.62
						c0.42-0.42,0.98-0.67,1.68-0.74v-1.25h0.94v1.27c0.69,0.1,1.23,0.39,1.62,0.86c0.39,0.48,0.59,1.1,0.59,1.86h-1.69
						c0-0.47-0.1-0.82-0.29-1.05c-0.19-0.23-0.45-0.35-0.78-0.35c-0.32,0-0.57,0.09-0.74,0.27c-0.18,0.18-0.26,0.43-0.26,0.75
						c0,0.3,0.09,0.54,0.26,0.71c0.17,0.18,0.49,0.36,0.96,0.55s0.85,0.36,1.15,0.53c0.3,0.17,0.55,0.35,0.76,0.56
						c0.21,0.21,0.37,0.45,0.47,0.71c0.11,0.27,0.16,0.58,0.16,0.93c0,0.66-0.21,1.2-0.62,1.62c-0.41,0.41-0.98,0.66-1.71,0.73V254
						h-0.93v-1.16c-0.8-0.09-1.42-0.37-1.86-0.85c-0.44-0.48-0.66-1.12-0.66-1.92h1.69c0,0.46,0.11,0.82,0.33,1.07
						c0.22,0.25,0.54,0.37,0.95,0.37c0.34,0,0.62-0.09,0.81-0.27C464.99,251.05,465.09,250.8,465.09,250.5z"/>
				</g>
			</g>
		</g>
		<g>
			<path class="st2" d="M410,211H183v-29h227V211z M185,209h223v-25H185V209z"/>
		</g>
		<g>
			<rect x="185" y="184" class="st7" width="223" height="25"/>
		</g>
		<g>
			<g>
				<path class="st2" d="M344.28,232.38c-9.88,0-19.17-3.85-26.16-10.84c-6.99-6.99-10.84-16.28-10.84-26.16
					c0-9.88,3.85-19.17,10.84-26.16c6.99-6.99,16.28-10.84,26.16-10.84c9.88,0,19.17,3.85,26.16,10.84
					c6.99,6.99,10.84,16.28,10.84,26.16c0,9.88-3.85,19.17-10.84,26.16C363.45,228.53,354.16,232.38,344.28,232.38z M344.28,160.38
					c-9.35,0-18.14,3.64-24.75,10.25c-6.61,6.61-10.25,15.4-10.25,24.75c0,9.35,3.64,18.14,10.25,24.75
					c6.61,6.61,15.4,10.25,24.75,10.25c9.35,0,18.14-3.64,24.75-10.25c6.61-6.61,10.25-15.4,10.25-24.75
					c0-9.35-3.64-18.14-10.25-24.75C362.42,164.02,353.63,160.38,344.28,160.38z"/>
			</g>
			<g>
				<path class="st8" d="M344.28,230.38c-9.35,0-18.14-3.64-24.75-10.25c-13.65-13.65-13.65-35.85,0-49.5
					c6.61-6.61,15.4-10.25,24.75-10.25c9.35,0,18.14,3.64,24.75,10.25c13.65,13.65,13.65,35.85,0,49.5
					C362.42,226.74,353.63,230.38,344.28,230.38z"/>
			</g>
			<g>
				<path class="st2" d="M344.28,224.38c-7.75,0-15.03-3.02-20.51-8.49c-11.31-11.31-11.31-29.71,0-41.01
					c5.48-5.48,12.76-8.49,20.5-8.49s15.03,3.02,20.51,8.49c11.31,11.31,11.31,29.7,0,41.01
					C359.31,221.36,352.02,224.38,344.28,224.38z M344.28,168.38c-7.21,0-13.99,2.81-19.09,7.91c-10.53,10.53-10.53,27.66,0,38.18
					c5.1,5.1,11.88,7.91,19.09,7.91c7.21,0,13.99-2.81,19.09-7.91c10.53-10.53,10.53-27.66,0-38.18
					C358.27,171.19,351.49,168.38,344.28,168.38z"/>
			</g>
			<g>
				<path class="st9" d="M344.28,222.38c-7.21,0-13.99-2.81-19.09-7.91c-10.53-10.53-10.53-27.66,0-38.18
					c5.1-5.1,11.88-7.91,19.09-7.91c7.21,0,13.99,2.81,19.09,7.91c10.53,10.53,10.53,27.66,0,38.18
					C358.27,219.57,351.49,222.38,344.28,222.38z"/>
			</g>
			<g>
				<path class="st2" d="M373.14,229.42l-4.24-4.24l6.36-6.36l4.24,4.24L373.14,229.42z M371.73,225.17l1.42,1.42l3.54-3.54
					l-1.41-1.41L371.73,225.17z"/>
			</g>
			<g>
				
					<rect x="371.7" y="223.11" transform="matrix(0.7072 -0.707 0.707 0.7072 -48.886 330.1822)" class="st10" width="5" height="2"/>
			</g>
			<g>
				<path class="st2" d="M407.79,269.72l-38.89-38.89l12.02-12.02l38.89,38.89L407.79,269.72z M371.73,230.83l36.06,36.06l9.19-9.19
					l-36.06-36.06L371.73,230.83z"/>
			</g>
			<g>
				
					<rect x="387.85" y="218.77" transform="matrix(0.7071 -0.7071 0.7071 0.7071 -57.2238 350.3723)" class="st8" width="13" height="51"/>
			</g>
			<g>
				<path class="st2" d="M399.3,261.24l-7.07-7.07l12.02-12.02l7.07,7.07L399.3,261.24z M395.06,254.17l4.24,4.24l9.19-9.19
					l-4.24-4.24L395.06,254.17z"/>
			</g>
			<g>
				
					<rect x="395.28" y="248.69" transform="matrix(0.707 -0.7072 0.7072 0.707 -60.2815 357.8737)" class="st7" width="13" height="6"/>
			</g>
			<g>
				<path class="st7" d="M356.3,183.36c-3.21-3.21-7.48-4.98-12.02-4.98c-4.54,0-8.81,1.77-12.02,4.98l-1.41-1.41
					c3.59-3.59,8.36-5.56,13.43-5.56c5.08,0,9.85,1.98,13.43,5.56L356.3,183.36z"/>
			</g>
		</g>
		<g>
			<polygon class="st2" points="184.66,289.75 183.34,288.25 238.01,239.65 273.93,272.58 344.03,194.15 416.53,228.67 
				471.1,115.57 472.9,116.43 417.47,231.33 416.57,230.9 344.52,196.6 274.07,275.42 237.99,242.35 			"/>
		</g>
		<g>
			<path class="st2" d="M274,282c-4.96,0-9-4.04-9-9s4.04-9,9-9s9,4.04,9,9S278.96,282,274,282z M274,266c-3.86,0-7,3.14-7,7
				s3.14,7,7,7s7-3.14,7-7S277.86,266,274,266z"/>
		</g>
		<g>
			<circle class="st3" cx="274" cy="273" r="7"/>
		</g>
		<g>
			<path class="st2" d="M238,251c-4.96,0-9-4.04-9-9s4.04-9,9-9c4.96,0,9,4.04,9,9S242.96,251,238,251z M238,235c-3.86,0-7,3.14-7,7
				s3.14,7,7,7c3.86,0,7-3.14,7-7S241.86,235,238,235z"/>
		</g>
		<g>
			<circle class="st3" cx="238" cy="242" r="7"/>
		</g>
		<g>
			<path class="st2" d="M345,205c-4.96,0-9-4.04-9-9s4.04-9,9-9c4.96,0,9,4.04,9,9S349.96,205,345,205z M345,189c-3.86,0-7,3.14-7,7
				s3.14,7,7,7s7-3.14,7-7S348.86,189,345,189z"/>
		</g>
		<g>
			<circle class="st3" cx="345" cy="196" r="7"/>
		</g>
		<g>
			<path class="st2" d="M417,238c-4.96,0-9-4.04-9-9s4.04-9,9-9c4.96,0,9,4.04,9,9S421.96,238,417,238z M417,222c-3.86,0-7,3.14-7,7
				s3.14,7,7,7c3.86,0,7-3.14,7-7S420.86,222,417,222z"/>
		</g>
		<g>
			<circle class="st3" cx="417" cy="229" r="7"/>
		</g>
		<g>
			<path class="st2" d="M472,125c-4.96,0-9-4.04-9-9s4.04-9,9-9c4.96,0,9,4.04,9,9S476.96,125,472,125z M472,109c-3.86,0-7,3.14-7,7
				s3.14,7,7,7c3.86,0,7-3.14,7-7S475.86,109,472,109z"/>
		</g>
		<g>
			<circle class="st3" cx="472" cy="116" r="7"/>
		</g>
		<g>
			<path class="st2" d="M184,298c-4.96,0-9-4.04-9-9s4.04-9,9-9s9,4.04,9,9S188.96,298,184,298z M184,282c-3.86,0-7,3.14-7,7
				s3.14,7,7,7c3.86,0,7-3.14,7-7S187.86,282,184,282z"/>
		</g>
		<g>
			<circle class="st3" cx="184" cy="289" r="7"/>
		</g>
		<g>
			<rect x="184" y="223" class="st2" width="31" height="2"/>
		</g>
		<g>
			<rect x="184" y="228" class="st2" width="31" height="2"/>
		</g>
		<g>
			<rect x="184" y="233" class="st2" width="16" height="2"/>
		</g>
		<g>
			<path class="st2" d="M476,211h-68v-29h68V211z M410,209h64v-25h-64V209z"/>
		</g>
		<g>
			<rect x="410" y="184" class="st9" width="64" height="25"/>
		</g>
		<g>
			<g>
				<path class="st7" d="M493,177v-3.15l-0.77-0.18c-1.24-0.29-2.43-0.79-3.52-1.46l-0.67-0.42l-2.23,2.23l-2.83-2.83l2.23-2.23
					l-0.42-0.67c-0.67-1.09-1.17-2.28-1.46-3.52l-0.18-0.77H480v-4h3.15l0.18-0.77c0.29-1.24,0.79-2.43,1.46-3.52l0.42-0.67
					l-2.23-2.23l2.83-2.83l2.23,2.23l0.67-0.42c1.09-0.67,2.28-1.17,3.52-1.46l0.77-0.18V147h4v3.15l0.77,0.18
					c1.24,0.29,2.43,0.79,3.52,1.46l0.67,0.42l2.23-2.23l2.83,2.83l-2.23,2.23l0.42,0.67c0.67,1.09,1.17,2.28,1.46,3.52l0.18,0.77
					H510v4h-3.15l-0.18,0.77c-0.29,1.24-0.79,2.43-1.46,3.52l-0.42,0.67l2.23,2.23l-2.83,2.83l-2.23-2.23l-0.67,0.42
					c-1.09,0.67-2.28,1.17-3.52,1.46l-0.77,0.18V177H493z"/>
			</g>
			<g>
				<circle class="st1" cx="495" cy="162" r="8"/>
			</g>
			<g>
				<path class="st2" d="M495,172c-5.51,0-10-4.49-10-10s4.49-10,10-10s10,4.49,10,10S500.51,172,495,172z M495,154
					c-4.41,0-8,3.59-8,8s3.59,8,8,8s8-3.59,8-8S499.41,154,495,154z"/>
			</g>
			<g>
				<path class="st2" d="M498,179h-6c-0.55,0-1-0.45-1-1v-2.59c-0.92-0.27-1.8-0.64-2.65-1.1l-1.84,1.84
					c-0.38,0.38-1.04,0.38-1.41,0l-4.24-4.24c-0.19-0.19-0.29-0.44-0.29-0.71c0-0.27,0.11-0.52,0.29-0.71l1.84-1.84
					c-0.46-0.85-0.83-1.73-1.1-2.65H479c-0.55,0-1-0.45-1-1v-6c0-0.55,0.45-1,1-1h2.59c0.27-0.92,0.64-1.8,1.1-2.65l-1.84-1.84
					c-0.19-0.19-0.29-0.44-0.29-0.71c0-0.27,0.11-0.52,0.29-0.71l4.24-4.24c0.39-0.39,1.02-0.39,1.41,0l1.84,1.84
					c0.84-0.46,1.73-0.83,2.65-1.1V146c0-0.55,0.45-1,1-1h6c0.55,0,1,0.45,1,1v2.59c0.92,0.27,1.8,0.64,2.65,1.1l1.84-1.84
					c0.19-0.19,0.44-0.29,0.71-0.29l0,0c0.27,0,0.52,0.11,0.71,0.29l4.24,4.24c0.39,0.39,0.39,1.02,0,1.41l-1.84,1.84
					c0.46,0.84,0.83,1.73,1.1,2.65H511c0.55,0,1,0.45,1,1v6c0,0.55-0.45,1-1,1h-2.59c-0.27,0.92-0.64,1.8-1.1,2.65l1.84,1.84
					c0.39,0.39,0.39,1.02,0,1.41l-4.24,4.24c-0.38,0.38-1.04,0.38-1.41,0l-1.84-1.84c-0.84,0.46-1.73,0.83-2.65,1.1V178
					C499,178.55,498.55,179,498,179z M493,177h4v-2.36c0-0.46,0.32-0.87,0.77-0.97c1.24-0.29,2.43-0.79,3.52-1.46
					c0.39-0.24,0.9-0.18,1.23,0.14l1.67,1.67l2.83-2.83l-1.67-1.67c-0.33-0.33-0.39-0.84-0.14-1.23c0.67-1.09,1.17-2.28,1.46-3.52
					c0.11-0.45,0.51-0.77,0.97-0.77H510v-4h-2.36c-0.46,0-0.87-0.32-0.97-0.77c-0.29-1.24-0.79-2.43-1.46-3.52
					c-0.24-0.39-0.18-0.91,0.14-1.23l1.67-1.67l-2.83-2.83l-1.67,1.67c-0.33,0.33-0.84,0.39-1.23,0.14
					c-1.09-0.67-2.28-1.17-3.52-1.46c-0.45-0.11-0.77-0.51-0.77-0.97V147h-4v2.36c0,0.46-0.32,0.87-0.77,0.97
					c-1.24,0.29-2.43,0.79-3.52,1.46c-0.39,0.24-0.91,0.18-1.23-0.14l-1.67-1.67l-2.83,2.83l1.67,1.67
					c0.33,0.33,0.39,0.84,0.14,1.23c-0.67,1.09-1.17,2.28-1.46,3.52c-0.11,0.45-0.51,0.77-0.97,0.77H480v4h2.36
					c0.46,0,0.87,0.32,0.97,0.77c0.29,1.24,0.79,2.43,1.46,3.52c0.24,0.39,0.18,0.9-0.14,1.23l-1.67,1.67l2.83,2.83l1.67-1.67
					c0.33-0.33,0.84-0.39,1.23-0.14c1.09,0.67,2.28,1.17,3.52,1.46c0.45,0.11,0.77,0.51,0.77,0.97V177z"/>
			</g>
		</g>
		<g>
			<g>
				<path class="st2" d="M160,234h-4c-0.55,0-1-0.45-1-1v-1.47c-0.56-0.18-1.1-0.4-1.62-0.67l-1.04,1.04
					c-0.39,0.39-1.02,0.39-1.41,0l-2.83-2.83c-0.19-0.19-0.29-0.44-0.29-0.71c0-0.26,0.11-0.52,0.29-0.71l1.04-1.04
					c-0.27-0.52-0.5-1.06-0.67-1.62H147c-0.55,0-1-0.45-1-1v-4c0-0.55,0.45-1,1-1h1.47c0.18-0.56,0.4-1.1,0.67-1.62l-1.04-1.04
					c-0.39-0.39-0.39-1.02,0-1.41l2.83-2.83c0.38-0.38,1.04-0.38,1.41,0l1.04,1.04c0.52-0.27,1.06-0.5,1.62-0.67V211
					c0-0.55,0.45-1,1-1h4c0.55,0,1,0.45,1,1v1.47c0.56,0.18,1.1,0.4,1.62,0.67l1.04-1.04c0.39-0.39,1.02-0.39,1.41,0l2.83,2.83
					c0.39,0.39,0.39,1.02,0,1.41l-1.04,1.04c0.27,0.52,0.5,1.06,0.67,1.62H169c0.55,0,1,0.45,1,1v4c0,0.55-0.45,1-1,1h-1.47
					c-0.18,0.56-0.4,1.1-0.67,1.62l1.04,1.04c0.39,0.39,0.39,1.02,0,1.41l-2.83,2.83c-0.39,0.39-1.02,0.39-1.41,0l-1.04-1.04
					c-0.52,0.27-1.06,0.5-1.62,0.67V233C161,233.55,160.55,234,160,234z M157,232h2v-1.23c0-0.47,0.32-0.87,0.78-0.97
					c0.88-0.2,1.71-0.55,2.48-1.03c0.4-0.25,0.91-0.19,1.24,0.14l0.87,0.87l1.41-1.41l-0.87-0.87c-0.33-0.33-0.39-0.84-0.14-1.24
					c0.48-0.77,0.83-1.6,1.03-2.47c0.1-0.46,0.51-0.78,0.98-0.78H168v-2h-1.23c-0.47,0-0.87-0.32-0.98-0.78
					c-0.2-0.88-0.55-1.71-1.03-2.47c-0.25-0.4-0.19-0.91,0.14-1.24l0.87-0.87l-1.41-1.41l-0.87,0.87c-0.33,0.33-0.85,0.39-1.24,0.14
					c-0.77-0.48-1.6-0.83-2.47-1.03c-0.46-0.1-0.78-0.51-0.78-0.97V212h-2v1.23c0,0.47-0.32,0.87-0.78,0.97
					c-0.88,0.2-1.71,0.55-2.47,1.03c-0.4,0.25-0.91,0.19-1.24-0.14l-0.87-0.87l-1.41,1.41l0.87,0.87c0.33,0.33,0.39,0.84,0.14,1.24
					c-0.48,0.77-0.83,1.6-1.03,2.47c-0.1,0.46-0.51,0.78-0.98,0.78H148v2h1.23c0.47,0,0.87,0.32,0.98,0.78
					c0.2,0.88,0.54,1.71,1.03,2.47c0.25,0.4,0.19,0.91-0.14,1.24l-0.87,0.87l1.41,1.41l0.87-0.87c0.33-0.33,0.84-0.39,1.24-0.14
					c0.77,0.48,1.6,0.83,2.48,1.03c0.46,0.1,0.78,0.51,0.78,0.97V232z"/>
			</g>
			<g>
				<path class="st7" d="M157,232v-2.03l-0.78-0.18c-0.88-0.2-1.71-0.54-2.47-1.03l-0.68-0.42l-1.44,1.44l-1.41-1.41l1.44-1.44
					l-0.43-0.68c-0.48-0.76-0.83-1.6-1.03-2.47l-0.18-0.78H148v-2h2.03l0.18-0.78c0.2-0.88,0.55-1.71,1.03-2.47l0.42-0.68
					l-1.44-1.44l1.41-1.41l1.44,1.44l0.68-0.43c0.77-0.48,1.6-0.83,2.47-1.03l0.78-0.18V212h2v2.03l0.78,0.18
					c0.88,0.2,1.71,0.54,2.47,1.03l0.68,0.43l1.44-1.44l1.41,1.41l-1.44,1.44l0.43,0.68c0.48,0.76,0.83,1.6,1.03,2.47l0.18,0.78H168
					v2h-2.03l-0.18,0.78c-0.2,0.88-0.55,1.71-1.03,2.47l-0.43,0.67l1.44,1.44l-1.41,1.41l-1.44-1.44l-0.68,0.42
					c-0.76,0.48-1.6,0.83-2.47,1.03l-0.78,0.18V232H157z"/>
			</g>
			<g>
				<path class="st2" d="M158,229c-3.86,0-7-3.14-7-7s3.14-7,7-7c3.86,0,7,3.14,7,7S161.86,229,158,229z M158,217
					c-2.76,0-5,2.24-5,5s2.24,5,5,5c2.76,0,5-2.24,5-5S160.76,217,158,217z"/>
			</g>
			<g>
				<circle class="st1" cx="158" cy="222" r="5"/>
			</g>
		</g>
		<g>
			<g>
				<path class="st2" d="M533,146c-9.37,0-17-7.63-17-17s7.63-17,17-17s17,7.63,17,17S542.37,146,533,146z M533,114
					c-8.27,0-15,6.73-15,15s6.73,15,15,15s15-6.73,15-15S541.27,114,533,114z"/>
			</g>
			<g>
				<circle class="st0" cx="533" cy="129" r="15"/>
			</g>
			<g>
				<rect x="532" y="113" class="st2" width="2" height="32"/>
			</g>
			<g>
				<rect x="517" y="128" class="st2" width="32" height="2"/>
			</g>
			<g>
				<path class="st2" d="M533,123.95c-4.56,0-9.12-1.55-12.76-4.64l1.29-1.52c6.54,5.56,16.4,5.56,22.93,0l1.29,1.52
					C542.12,122.4,537.56,123.95,533,123.95z"/>
			</g>
			<g>
				<path class="st2" d="M521.53,140.21l-1.29-1.52c7.28-6.18,18.25-6.18,25.52,0l-1.29,1.52
					C537.93,134.66,528.07,134.66,521.53,140.21z"/>
			</g>
			<g>
				<path class="st2" d="M532.47,145.84c-5.91-3.62-9.43-9.91-9.43-16.84s3.53-13.22,9.43-16.84l1.04,1.71
					c-5.31,3.25-8.48,8.91-8.48,15.14c0,6.22,3.17,11.88,8.48,15.14L532.47,145.84z"/>
			</g>
			<g>
				<path class="st2" d="M533.53,145.84l-1.04-1.71c5.31-3.25,8.48-8.91,8.48-15.14c0-6.22-3.17-11.88-8.48-15.14l1.04-1.71
					c5.91,3.62,9.43,9.91,9.43,16.84S539.43,142.22,533.53,145.84z"/>
			</g>
		</g>
		<g>
			<rect x="286" y="152" class="st2" width="14" height="2"/>
		</g>
		<g>
			<rect x="508" y="200" class="st2" width="6" height="2"/>
		</g>
		<g>
			<rect x="111" y="210" class="st2" width="10" height="2"/>
		</g>
		<g>
			<g>
				<path class="st2" d="M531,215c-3.31,0-6-2.69-6-6s2.69-6,6-6s6,2.69,6,6S534.31,215,531,215z M531,205c-2.21,0-4,1.79-4,4
					s1.79,4,4,4s4-1.79,4-4S533.21,205,531,205z"/>
			</g>
			<g>
				<circle class="st7" cx="531" cy="209" r="4"/>
			</g>
			<g>
				<path class="st2" d="M546.59,206c-2.14,0-4.13-1.15-5.2-3c-1.65-2.87-0.67-6.54,2.2-8.2c0.91-0.53,1.95-0.8,3-0.8
					c2.14,0,4.13,1.15,5.2,3c1.65,2.87,0.67,6.54-2.2,8.2C548.68,205.72,547.64,206,546.59,206z M546.59,196
					c-0.7,0-1.39,0.19-2,0.54c-1.91,1.1-2.57,3.55-1.46,5.46c0.71,1.23,2.04,2,3.47,2c0.7,0,1.39-0.19,2-0.54
					c1.91-1.1,2.57-3.55,1.46-5.46C549.34,196.77,548.01,196,546.59,196z"/>
			</g>
			<g>
				<path class="st7" d="M546.59,204c-1.43,0-2.76-0.77-3.47-2c-1.1-1.91-0.45-4.36,1.46-5.46c0.61-0.35,1.3-0.54,2-0.54
					c1.43,0,2.76,0.77,3.47,2c1.1,1.91,0.45,4.36-1.46,5.46C547.98,203.81,547.29,204,546.59,204z"/>
			</g>
			<g>
				
					<rect x="535.66" y="203" transform="matrix(0.8661 -0.4999 0.4999 0.8661 -29.7073 297.1115)" class="st2" width="8" height="2"/>
			</g>
			<g>
				<path class="st2" d="M546.59,224c-1.05,0-2.08-0.28-3-0.8c-2.86-1.65-3.85-5.33-2.2-8.2c1.07-1.85,3.06-3,5.2-3
					c1.05,0,2.08,0.28,3,0.8c2.87,1.65,3.85,5.33,2.2,8.2C550.72,222.85,548.72,224,546.59,224z M546.59,214
					c-1.43,0-2.76,0.77-3.47,2c-1.1,1.91-0.45,4.36,1.46,5.46c0.61,0.35,1.3,0.54,2,0.54c1.43,0,2.76-0.77,3.47-2
					c1.1-1.91,0.45-4.36-1.46-5.46C547.98,214.18,547.29,214,546.59,214z"/>
			</g>
			<g>
				<path class="st7" d="M546.58,222c-0.7,0-1.39-0.19-2-0.54c-1.91-1.1-2.57-3.55-1.46-5.46c0.71-1.23,2.04-2,3.47-2
					c0.7,0,1.39,0.19,2,0.54c1.91,1.1,2.57,3.55,1.46,5.46C549.34,221.23,548.01,222,546.58,222z"/>
			</g>
			<g>
				<rect x="538.66" y="210" transform="matrix(0.5 -0.866 0.866 0.5 84.5124 574.3743)" class="st2" width="2" height="8"/>
			</g>
		</g>
		<g>
			<g>
				<path class="st2" d="M137,275H95v-39h42V275z M97,273h38v-35H97V273z"/>
			</g>
			<g>
				<rect x="97" y="238" class="st7" width="38" height="35"/>
			</g>
			<g>
				<path class="st2" d="M137,247H95v-11h42V247z M97,245h38v-7H97V245z"/>
			</g>
			<g>
				<rect x="97" y="238" class="st0" width="38" height="7"/>
			</g>
			<g>
				<rect x="102" y="251" class="st2" width="9" height="2"/>
			</g>
			<g>
				<rect x="102" y="255" class="st2" width="22" height="2"/>
			</g>
			<g>
				<rect x="102" y="261" class="st2" width="9" height="2"/>
			</g>
			<g>
				<rect x="102" y="265" class="st2" width="22" height="2"/>
			</g>
		</g>
		<g>
			<g>
				<path class="st2" d="M230,168c-7.72,0-14-6.28-14-14s6.28-14,14-14c7.72,0,14,6.28,14,14S237.72,168,230,168z M230,142
					c-6.62,0-12,5.38-12,12s5.38,12,12,12s12-5.38,12-12S236.62,142,230,142z"/>
			</g>
			<g>
				<circle class="st11" cx="230" cy="154" r="12"/>
			</g>
			<g>
				<path class="st2" d="M244,155h-9v-1c0-2.76-2.24-5-5-5h-1v-9h1c7.72,0,14,6.28,14,14V155z M236.93,153h5.03
					c-0.48-5.82-5.14-10.48-10.96-10.96v5.03C234.06,147.51,236.49,149.94,236.93,153z"/>
			</g>
			<g>
				<path class="st8" d="M236.93,153c-0.44-3.06-2.87-5.49-5.93-5.93v-5.03c5.82,0.48,10.48,5.14,10.96,10.96H236.93z"/>
			</g>
			<g>
				<path class="st2" d="M238.78,164.93l-6.12-6.59l0.73-0.68c1.03-0.96,1.6-2.26,1.6-3.66v-1h9v1c0,3.87-1.63,7.6-4.48,10.25
					L238.78,164.93z M235.44,158.39l3.42,3.68c1.81-1.97,2.88-4.43,3.1-7.07h-5.03C236.75,156.24,236.23,157.41,235.44,158.39z"/>
			</g>
			<g>
				<path class="st0" d="M235.44,158.39c0.79-0.98,1.3-2.15,1.48-3.39h5.03c-0.22,2.65-1.29,5.1-3.1,7.07L235.44,158.39z"/>
			</g>
			<g>
				<path class="st2" d="M230,161c-3.86,0-7-3.14-7-7s3.14-7,7-7c3.86,0,7,3.14,7,7S233.86,161,230,161z M230,149
					c-2.76,0-5,2.24-5,5s2.24,5,5,5c2.76,0,5-2.24,5-5S232.76,149,230,149z"/>
			</g>
			<g>
				<circle class="st1" cx="230" cy="154" r="5"/>
			</g>
		</g>
		<g>
			<rect x="190" y="163" class="st2" width="9" height="2"/>
		</g>
		<g>
			<rect x="494" y="128" class="st2" width="6" height="2"/>
		</g>
		<g>
			<rect x="531" y="159" class="st2" width="4" height="2"/>
		</g>
		<g>
			<g>
				<path class="st2" d="M159,166h-14v-9h14V166z M147,164h10v-5h-10V164z"/>
			</g>
			<g>
				<rect x="147" y="159" class="st4" width="10" height="5"/>
			</g>
			<g>
				<path class="st2" d="M156,159h-8v-35h8V159z M150,157h4v-31h-4V157z"/>
			</g>
			<g>
				<path class="st2" d="M166,137h-18v-7h18V137z M150,135h14v-3h-14V135z"/>
			</g>
			<g>
				<rect x="150" y="132" class="st4" width="14" height="3"/>
			</g>
			<g>
				<path class="st2" d="M162,147h-14v-7h14V147z M150,145h10v-3h-10V145z"/>
			</g>
			<g>
				<rect x="150" y="142" class="st4" width="10" height="3"/>
			</g>
			<g>
				<path class="st2" d="M152,194c-8.82,0-16-7.18-16-16s7.18-16,16-16s16,7.18,16,16S160.82,194,152,194z M152,164
					c-7.72,0-14,6.28-14,14s6.28,14,14,14s14-6.28,14-14S159.72,164,152,164z"/>
			</g>
			<g>
				<circle class="st4" cx="152" cy="178" r="13.93"/>
			</g>
			<g>
				<path class="st2" d="M152,188.64c-2.32,0-4.21-1.89-4.21-4.21s1.89-4.21,4.21-4.21s4.21,1.89,4.21,4.21
					S154.32,188.64,152,188.64z M152,182.21c-1.22,0-2.21,0.99-2.21,2.21c0,1.22,0.99,2.21,2.21,2.21c1.22,0,2.21-0.99,2.21-2.21
					C154.21,183.21,153.22,182.21,152,182.21z"/>
			</g>
			<g>
				<path class="st1" d="M152,186.57c-1.18,0-2.14-0.96-2.14-2.14c0-1.18,0.96-2.14,2.14-2.14c1.18,0,2.14,0.96,2.14,2.14
					C154.14,185.61,153.18,186.57,152,186.57z"/>
			</g>
			<g>
				<rect x="150" y="126" class="st4" width="4" height="31"/>
			</g>
		</g>
		<g>
			<rect x="147" y="159" class="st12" width="10" height="1"/>
		</g>
	</g>
</g>
<g id="Text">
	<g>
		<path class="st13" d="M220.04,84h-3.36V67.2h3.36v8.4l6.26-8.4h3.82l-5.31,7.09l5.31,9.71h-3.82l-3.69-6.8l-2.57,3.43V84z"/>
		<path class="st13" d="M243.2,84h-11.52V67.2h11.52v3.36h-8.16v3.36h5.52v3.36h-5.52v3.35h8.16V84z"/>
		<path class="st13" d="M253.11,84h-3.35v-5.26c-0.74-0.19-1.42-0.49-2.04-0.9c-0.62-0.41-1.15-0.91-1.6-1.48
			c-0.45-0.57-0.79-1.21-1.04-1.91c-0.25-0.7-0.37-1.44-0.37-2.21V67.2h3.36v5.04c0,0.46,0.09,0.9,0.26,1.31
			c0.18,0.41,0.42,0.77,0.72,1.07c0.3,0.3,0.66,0.54,1.07,0.72c0.41,0.18,0.85,0.26,1.31,0.26c0.46,0,0.9-0.09,1.31-0.26
			c0.41-0.18,0.77-0.42,1.07-0.72c0.3-0.3,0.54-0.66,0.72-1.07c0.18-0.41,0.26-0.85,0.26-1.31V67.2h3.35v5.04
			c0,0.77-0.12,1.51-0.37,2.21c-0.25,0.7-0.59,1.34-1.04,1.91c-0.45,0.57-0.98,1.07-1.59,1.48c-0.62,0.41-1.3,0.71-2.04,0.9V84z"/>
		<path class="st13" d="M277.11,79.2c0,0.7-0.13,1.35-0.39,1.96c-0.26,0.61-0.62,1.15-1.08,1.61c-0.46,0.46-0.99,0.82-1.61,1.08
			c-0.61,0.26-1.27,0.39-1.96,0.39c-0.63,0-1.22-0.11-1.8-0.33c-0.57-0.22-1.09-0.54-1.55-0.96c-0.46,0.42-0.98,0.74-1.56,0.96
			c-0.58,0.22-1.18,0.33-1.8,0.33c-0.7,0-1.35-0.13-1.96-0.39c-0.61-0.26-1.15-0.62-1.61-1.08c-0.46-0.46-0.82-0.99-1.08-1.61
			c-0.26-0.61-0.39-1.27-0.39-1.96v-12h3.36v12c0,0.23,0.04,0.46,0.13,0.66c0.09,0.21,0.21,0.39,0.36,0.54
			c0.15,0.15,0.33,0.27,0.53,0.36c0.2,0.09,0.42,0.13,0.66,0.13c0.23,0,0.45-0.04,0.66-0.13c0.2-0.09,0.38-0.21,0.53-0.36
			c0.15-0.15,0.27-0.33,0.36-0.54c0.09-0.21,0.13-0.43,0.13-0.66v-12h3.36v12c0,0.23,0.04,0.46,0.13,0.66
			c0.09,0.21,0.21,0.39,0.36,0.54c0.15,0.15,0.33,0.27,0.53,0.36c0.2,0.09,0.42,0.13,0.66,0.13s0.45-0.04,0.66-0.13
			c0.2-0.09,0.38-0.21,0.53-0.36c0.15-0.15,0.27-0.33,0.36-0.54c0.09-0.21,0.13-0.43,0.13-0.66v-12h3.35V79.2z"/>
		<path class="st13" d="M296.58,75.67c0,0.8-0.1,1.56-0.31,2.3c-0.21,0.74-0.5,1.43-0.87,2.07c-0.38,0.64-0.83,1.23-1.36,1.76
			c-0.53,0.53-1.12,0.99-1.76,1.37c-0.64,0.38-1.33,0.67-2.07,0.88c-0.74,0.21-1.51,0.31-2.31,0.31c-0.8,0-1.56-0.1-2.3-0.31
			c-0.74-0.21-1.43-0.5-2.07-0.88c-0.64-0.38-1.23-0.83-1.76-1.37c-0.53-0.53-0.99-1.12-1.37-1.76c-0.38-0.64-0.67-1.34-0.88-2.07
			c-0.21-0.74-0.31-1.51-0.31-2.3c0-0.8,0.1-1.57,0.31-2.31c0.21-0.74,0.5-1.43,0.88-2.07c0.38-0.64,0.83-1.23,1.37-1.76
			c0.53-0.53,1.12-0.98,1.76-1.36c0.64-0.38,1.34-0.67,2.07-0.87c0.74-0.21,1.51-0.31,2.3-0.31c0.8,0,1.57,0.1,2.31,0.31
			c0.74,0.21,1.43,0.5,2.07,0.87c0.64,0.38,1.23,0.83,1.76,1.36c0.53,0.53,0.98,1.12,1.36,1.76c0.38,0.64,0.67,1.33,0.87,2.07
			C296.47,74.1,296.58,74.87,296.58,75.67z M293.24,75.67c0-0.73-0.14-1.43-0.42-2.08c-0.28-0.65-0.66-1.22-1.14-1.7
			c-0.48-0.48-1.05-0.86-1.7-1.14c-0.65-0.28-1.35-0.42-2.08-0.42c-0.74,0-1.44,0.14-2.09,0.42c-0.65,0.28-1.21,0.66-1.7,1.14
			c-0.48,0.48-0.87,1.05-1.15,1.7c-0.28,0.65-0.42,1.35-0.42,2.08c0,0.73,0.14,1.42,0.42,2.07c0.28,0.64,0.66,1.21,1.15,1.69
			c0.48,0.48,1.05,0.87,1.7,1.15c0.65,0.28,1.34,0.42,2.09,0.42c0.73,0,1.43-0.14,2.08-0.42c0.65-0.28,1.22-0.66,1.7-1.15
			c0.48-0.48,0.86-1.05,1.14-1.69C293.1,77.09,293.24,76.4,293.24,75.67z"/>
		<path class="st13" d="M302.14,84h-3.36V67.2h6.73c0.62,0,1.21,0.08,1.78,0.24c0.57,0.16,1.1,0.39,1.6,0.68
			c0.5,0.29,0.95,0.64,1.36,1.05c0.41,0.41,0.76,0.87,1.05,1.37c0.29,0.5,0.52,1.04,0.68,1.61c0.16,0.57,0.24,1.16,0.24,1.78
			c0,0.58-0.07,1.14-0.22,1.69c-0.14,0.55-0.35,1.07-0.62,1.56c-0.27,0.49-0.6,0.95-0.99,1.36c-0.39,0.41-0.83,0.77-1.31,1.08
			l1.86,4.39h-3.57l-1.46-3.39l-3.76,0.02V84z M302.14,70.56v6.73h3.36c0.46,0,0.89-0.09,1.3-0.26c0.41-0.18,0.76-0.42,1.07-0.72
			c0.3-0.3,0.54-0.66,0.72-1.07c0.18-0.41,0.26-0.85,0.26-1.31c0-0.46-0.09-0.9-0.26-1.31c-0.18-0.41-0.42-0.77-0.72-1.07
			c-0.3-0.3-0.66-0.54-1.07-0.72c-0.41-0.18-0.84-0.26-1.3-0.26H302.14z"/>
		<path class="st13" d="M327.89,75.6c0,0.77-0.1,1.52-0.3,2.23c-0.2,0.71-0.48,1.38-0.85,2c-0.37,0.62-0.8,1.19-1.31,1.7
			c-0.51,0.51-1.07,0.95-1.7,1.32s-1.3,0.65-2.01,0.85c-0.71,0.2-1.46,0.3-2.23,0.3h-5.06V67.2h5.06c0.77,0,1.52,0.1,2.23,0.3
			c0.71,0.2,1.38,0.48,2.01,0.85c0.63,0.37,1.19,0.81,1.7,1.32c0.51,0.51,0.95,1.08,1.31,1.7c0.37,0.62,0.65,1.29,0.85,2
			C327.79,74.08,327.89,74.82,327.89,75.6z M324.53,75.6c0-0.7-0.13-1.35-0.39-1.96c-0.26-0.61-0.62-1.14-1.08-1.6
			c-0.46-0.46-0.99-0.82-1.61-1.08c-0.61-0.27-1.27-0.4-1.96-0.4h-1.68v10.08h1.68c0.7,0,1.35-0.13,1.96-0.39
			c0.61-0.26,1.15-0.62,1.61-1.08c0.46-0.46,0.82-0.99,1.08-1.61C324.4,76.95,324.53,76.29,324.53,75.6z"/>
		<path class="st13" d="M340.2,84h-3.36V67.2h6.73c0.62,0,1.21,0.08,1.78,0.24c0.57,0.16,1.1,0.39,1.6,0.68
			c0.5,0.29,0.95,0.64,1.36,1.05c0.41,0.41,0.76,0.87,1.05,1.37s0.52,1.04,0.68,1.61c0.16,0.57,0.24,1.16,0.24,1.78
			c0,0.58-0.07,1.14-0.22,1.69c-0.14,0.55-0.35,1.07-0.62,1.56c-0.27,0.49-0.6,0.95-0.99,1.36c-0.39,0.41-0.83,0.77-1.31,1.08
			L349,84h-3.57l-1.46-3.39l-3.76,0.02V84z M340.2,70.56v6.73h3.36c0.46,0,0.89-0.09,1.3-0.26c0.41-0.18,0.76-0.42,1.07-0.72
			c0.3-0.3,0.54-0.66,0.72-1.07c0.18-0.41,0.26-0.85,0.26-1.31c0-0.46-0.09-0.9-0.26-1.31c-0.18-0.41-0.42-0.77-0.72-1.07
			c-0.3-0.3-0.66-0.54-1.07-0.72c-0.41-0.18-0.84-0.26-1.3-0.26H340.2z"/>
		<path class="st13" d="M364,84h-11.52V67.2H364v3.36h-8.16v3.36h5.52v3.36h-5.52v3.35H364V84z"/>
		<path class="st13" d="M365.18,72.23c0-0.7,0.13-1.35,0.4-1.96c0.27-0.61,0.63-1.14,1.08-1.6c0.46-0.46,0.99-0.82,1.6-1.08
			c0.61-0.27,1.26-0.4,1.96-0.4h7.71v3.36h-7.71c-0.23,0-0.45,0.04-0.66,0.13s-0.38,0.21-0.53,0.36c-0.15,0.15-0.27,0.33-0.36,0.53
			c-0.09,0.2-0.13,0.42-0.13,0.66c0,0.23,0.04,0.46,0.13,0.66c0.09,0.21,0.21,0.39,0.36,0.54c0.15,0.15,0.33,0.27,0.53,0.36
			c0.2,0.09,0.42,0.13,0.66,0.13h3.36c0.7,0,1.35,0.13,1.96,0.39c0.61,0.26,1.15,0.62,1.61,1.08c0.46,0.46,0.82,0.99,1.08,1.61
			c0.26,0.61,0.39,1.27,0.39,1.96c0,0.7-0.13,1.35-0.39,1.96c-0.26,0.61-0.62,1.14-1.08,1.6c-0.46,0.46-0.99,0.82-1.61,1.08
			c-0.61,0.27-1.27,0.4-1.96,0.4h-7.46v-3.36h7.46c0.23,0,0.45-0.04,0.66-0.13c0.2-0.09,0.38-0.21,0.53-0.36
			c0.15-0.15,0.27-0.33,0.36-0.53c0.09-0.2,0.13-0.42,0.13-0.66c0-0.23-0.04-0.45-0.13-0.66c-0.09-0.2-0.21-0.38-0.36-0.53
			c-0.15-0.15-0.33-0.27-0.53-0.36c-0.2-0.09-0.42-0.13-0.66-0.13h-3.36c-0.7,0-1.35-0.13-1.96-0.4c-0.61-0.27-1.14-0.63-1.6-1.08
			c-0.46-0.46-0.82-0.99-1.08-1.61C365.31,73.58,365.18,72.93,365.18,72.23z"/>
		<path class="st13" d="M392.34,84h-11.52V67.2h11.52v3.36h-8.16v3.36h5.52v3.36h-5.52v3.35h8.16V84z"/>
		<path class="st13" d="M407.95,84h-3.36v-3.36h-6.73V84h-3.35V73.92c0-0.93,0.18-1.8,0.53-2.62c0.35-0.82,0.83-1.53,1.44-2.14
			c0.61-0.61,1.32-1.09,2.13-1.44c0.82-0.35,1.69-0.53,2.62-0.53c0.93,0,1.8,0.18,2.62,0.53c0.82,0.35,1.53,0.83,2.14,1.44
			c0.61,0.61,1.09,1.32,1.44,2.14c0.35,0.82,0.53,1.69,0.53,2.62V84z M404.59,77.29v-3.36c0-0.46-0.09-0.9-0.26-1.31
			c-0.18-0.41-0.42-0.77-0.72-1.07c-0.3-0.3-0.66-0.54-1.07-0.72c-0.41-0.18-0.85-0.26-1.31-0.26c-0.46,0-0.9,0.09-1.31,0.26
			c-0.41,0.18-0.77,0.42-1.07,0.72c-0.3,0.3-0.54,0.66-0.72,1.07c-0.18,0.41-0.26,0.85-0.26,1.31v3.36H404.59z"/>
		<path class="st13" d="M414.23,84h-3.36V67.2h6.73c0.62,0,1.21,0.08,1.78,0.24c0.57,0.16,1.1,0.39,1.6,0.68
			c0.5,0.29,0.95,0.64,1.36,1.05c0.41,0.41,0.76,0.87,1.05,1.37c0.29,0.5,0.52,1.04,0.68,1.61c0.16,0.57,0.24,1.16,0.24,1.78
			c0,0.58-0.07,1.14-0.22,1.69c-0.14,0.55-0.35,1.07-0.62,1.56s-0.6,0.95-0.99,1.36c-0.39,0.41-0.83,0.77-1.31,1.08l1.86,4.39h-3.57
			L418,80.61l-3.76,0.02V84z M414.23,70.56v6.73h3.36c0.46,0,0.89-0.09,1.3-0.26c0.41-0.18,0.76-0.42,1.07-0.72
			c0.3-0.3,0.55-0.66,0.72-1.07c0.18-0.41,0.26-0.85,0.26-1.31c0-0.46-0.09-0.9-0.26-1.31c-0.18-0.41-0.42-0.77-0.72-1.07
			c-0.3-0.3-0.66-0.54-1.07-0.72c-0.41-0.18-0.84-0.26-1.3-0.26H414.23z"/>
		<path class="st13" d="M439.93,82.28c-0.78,0.67-1.66,1.19-2.63,1.55c-0.97,0.36-1.97,0.54-3.01,0.54c-0.8,0-1.56-0.1-2.3-0.31
			c-0.74-0.21-1.43-0.5-2.07-0.88c-0.64-0.38-1.23-0.83-1.76-1.37c-0.53-0.53-0.99-1.12-1.37-1.76c-0.38-0.64-0.67-1.34-0.88-2.07
			c-0.21-0.74-0.31-1.51-0.31-2.3c0-0.8,0.1-1.57,0.31-2.31c0.21-0.74,0.5-1.44,0.88-2.08c0.38-0.64,0.83-1.23,1.37-1.76
			c0.53-0.53,1.12-0.99,1.76-1.37c0.64-0.38,1.34-0.67,2.07-0.88c0.74-0.21,1.51-0.31,2.3-0.31c1.04,0,2.04,0.18,3.01,0.53
			c0.97,0.36,1.84,0.87,2.63,1.55l-1.78,2.93c-0.49-0.53-1.07-0.94-1.75-1.22c-0.67-0.29-1.38-0.43-2.11-0.43
			c-0.74,0-1.44,0.14-2.09,0.42c-0.65,0.28-1.21,0.66-1.7,1.14c-0.48,0.48-0.87,1.05-1.15,1.7c-0.28,0.65-0.42,1.35-0.42,2.08
			c0,0.73,0.14,1.42,0.42,2.07c0.28,0.64,0.66,1.21,1.15,1.69c0.48,0.48,1.05,0.87,1.7,1.15c0.65,0.28,1.34,0.42,2.09,0.42
			c0.73,0,1.44-0.14,2.11-0.43c0.67-0.29,1.25-0.69,1.75-1.22L439.93,82.28z"/>
		<path class="st13" d="M445.24,84h-3.36V67.2h3.36v6.73h6.71V67.2h3.36V84h-3.36v-6.71h-6.71V84z"/>
	</g>
</g>
</svg>
